#N canvas 695 565 412 344 10;
#X obj 68 290 s \$1-global-beat;
#X text 157 238 <- \$1 = beat division \; \$2 = beat number \; \$3
= beat time interval;
#X obj 68 62 r \$1-metro-in;
#X obj 68 124 mod \$2;
#X obj 68 146 sel 0;
#X obj 142 116 / 16;
#X obj 68 194 i;
#X obj 99 194 + 1;
#X obj 142 94 r \$1-metro-time;
#X obj 86 172 r \$1-reset;
#X obj 142 138 * \$2;
#X obj 68 216 pack f \$2 f;
#X msg 68 238 \$2 \$1 \$3;
#X text 264 35 \$1 = \$0 \; \$2 = beat division;
#X connect 2 0 3 0;
#X connect 3 0 4 0;
#X connect 4 0 6 0;
#X connect 5 0 10 0;
#X connect 6 0 7 0;
#X connect 6 0 11 0;
#X connect 7 0 6 1;
#X connect 8 0 5 0;
#X connect 9 0 6 1;
#X connect 10 0 11 2;
#X connect 11 0 12 0;
#X connect 12 0 0 0;
