#N canvas 0 22 450 300 10;
#X obj 59 69 inlet;
#X obj 59 110 moses \$1;
#X msg 59 131 0;
#X msg 104 130 1;
#X obj 59 152 change;
#X obj 59 203 outlet;
#X obj 116 70 inlet;
#X text 54 12 >= /// greater than that only outputs when the result
of the truth test changes;
#X connect 0 0 1 0;
#X connect 1 0 2 0;
#X connect 1 1 3 0;
#X connect 2 0 4 0;
#X connect 3 0 4 0;
#X connect 4 0 5 0;
#X connect 6 0 1 1;
