#N canvas 1 188 285 369 10;
#X obj 17 28 inlet~;
#X obj 17 266 *~;
#X obj 82 266 *~;
#X obj 17 319 outlet~;
#X obj 81 29 inlet~;
#X obj 17 288 +~;
#X obj 97 241 cos~;
#X obj 32 240 cos~;
#X text 170 128 <-- Range: 0-.25;
#X obj 143 130 f;
#X obj 143 25 inlet;
#X obj 143 110 * 0.25;
#X obj 151 48 loadbang;
#X obj 151 70 \$1;
#X obj 97 219 +~ 0.75;
#X msg 143 151 \$1 10;
#X obj 143 173 vline~;
#X obj 143 91 clip 0 1;
#X connect 0 0 1 0;
#X connect 1 0 5 0;
#X connect 2 0 5 1;
#X connect 4 0 2 0;
#X connect 5 0 3 0;
#X connect 6 0 2 1;
#X connect 7 0 1 1;
#X connect 9 0 15 0;
#X connect 10 0 17 0;
#X connect 11 0 9 0;
#X connect 12 0 13 0;
#X connect 13 0 17 0;
#X connect 14 0 6 0;
#X connect 15 0 16 0;
#X connect 16 0 14 0;
#X connect 16 0 7 0;
#X connect 17 0 11 0;
