#N struct 1016_knob_struct float px float py float cx float cy float
pthck float innerc float bgcol float dialcol float pointercol float
dialsize;
#N canvas 487 289 603 420 12;
#N canvas 216 411 564 316 knob_struct 0;
#X obj 125 93 outlet;
#X obj 13 34 loadbang;
#X obj 13 80 select bg-off;
#X msg 13 106 0;
#X obj 13 57 symbol \$3;
#X obj 49 263 tgl 15 1 empty empty empty 17 7 0 10 -262144 -1 -1 1
1;
#X obj 125 20 struct \$0_knob_struct float px float py float cx float
cy float pthck float innerc float bgcol float dialcol float pointercol
float dialsize;
#X obj 13 130 filledpolygon bgcol bgcol 1 -1.008 1.008 1 1.008 1 -1
-1.008 -1, f 68;
#X obj 13 167 filledpolygon 0 dialcol dialsize -0.008 0.008 -0.008
0.008, f 63;
#X obj 13 235 filledpolygon 0 bgcol innerc -0.008 0.008 -0.008 0.008
;
#X obj 12 192 filledpolygon -x 0 pointercol pthck cx cy px py;
#X connect 1 0 4 0;
#X connect 2 0 3 0;
#X connect 3 0 7 0;
#X connect 4 0 2 0;
#X connect 5 0 9 0;
#X connect 6 0 0 0;
#X restore 368 220 pd knob_struct;
#N canvas 71 335 819 403 append 0;
#X obj 340 234 \$0;
#X obj 340 286 pointer;
#X msg 340 260 traverse pd-\$1_knob_data \, bang;
#X obj 7 371 outlet;
#X obj 372 154 pack f f f;
#X obj 372 104 \$0;
#X obj 439 127 - 5;
#X obj 372 79 t b b;
#X obj 7 34 t b b b;
#X msg 371 181 \; \$1-knob coords -1.008 1.008 1 -1 \$2 \$2 2 10 10
\; pd-\$1_knob_data coords -1.008 1.008 1 -1 \$2 \$2 2 0 0 \; pd-\$1_knob_data
clear \;, f 54;
#X obj 7 6 r \$0_loadbang;
#X obj 457 33 r \$0_init_size;
#X obj 182 217 f;
#X obj 439 102 f;
#X obj -13 37 bng 15 250 50 0 empty empty empty 17 7 0 10 -262144 -1
-1;
#X obj 178 247 / 4;
#X obj 139 248 / 10;
#X obj 108 10 r \$0_messages;
#X obj 185 75 t b f;
#X obj 239 75 t b f;
#X obj 294 75 t b f;
#X obj 108 35 route float bgcolor dialcolor pointercolor;
#X obj 7 310 append \$0_knob_struct px py cx cy pthck innerc dialsize
bgcol dialcol pointercol, f 48;
#X obj 7 278 pack -0.47 -0.87 -0.23 -0.43 f f f 0 44 880;
#X connect 0 0 2 0;
#X connect 1 0 22 10;
#X connect 2 0 1 0;
#X connect 4 0 9 0;
#X connect 5 0 4 0;
#X connect 6 0 4 2;
#X connect 7 0 5 0;
#X connect 7 1 13 0;
#X connect 8 0 23 0;
#X connect 8 1 0 0;
#X connect 8 1 12 0;
#X connect 8 2 7 0;
#X connect 10 0 8 0;
#X connect 11 0 12 1;
#X connect 11 0 13 1;
#X connect 12 0 15 0;
#X connect 12 0 16 0;
#X connect 12 0 23 6;
#X connect 13 0 6 0;
#X connect 13 0 4 1;
#X connect 14 0 8 0;
#X connect 15 0 23 5;
#X connect 16 0 23 4;
#X connect 17 0 21 0;
#X connect 18 0 8 0;
#X connect 18 1 23 7;
#X connect 19 0 8 0;
#X connect 19 1 23 8;
#X connect 20 0 8 0;
#X connect 20 1 23 9;
#X connect 21 1 18 0;
#X connect 21 2 19 0;
#X connect 21 3 20 0;
#X connect 22 0 3 0;
#X connect 23 0 22 0;
#X restore 284 220 pd append;
#N canvas 233 348 748 453 set 0;
#X obj 182 80 inlet;
#X obj 7 44 inlet;
#N canvas 603 444 326 283 calc 0;
#X obj 140 112 cos;
#X obj 140 41 atan 1;
#X obj 82 41 atan 1;
#X obj 82 113 sin;
#X obj 82 -16 inlet;
#X obj 82 191 outlet;
#X obj 140 189 outlet;
#X obj 81 137 * -1;
#X obj 139 136 * -1;
#X obj 82 88 + 0.5;
#X obj 140 90 + 0.5;
#X obj 140 66 * 6.75;
#X obj 82 65 * 6.75;
#X connect 0 0 8 0;
#X connect 1 0 11 0;
#X connect 2 0 12 0;
#X connect 3 0 7 0;
#X connect 4 0 1 0;
#X connect 4 0 2 0;
#X connect 7 0 5 0;
#X connect 8 0 6 0;
#X connect 9 0 3 0;
#X connect 10 0 0 0;
#X connect 11 0 10 0;
#X connect 12 0 9 0;
#X restore 7 138 pd calc;
#X f 8;
#X obj 19 171 get \$0_knob_struct px py, f 8;
#X obj 7 112 clip 0 1;
#X obj 61 251 t f f;
#X obj 7 251 t f f;
#X obj 7 279 * 0.8;
#X obj 61 278 * 0.8;
#X obj 7 78 pow 1.25;
#X obj 116 278 * 0.5;
#X obj 170 278 * 0.5;
#X obj 182 109 t p p;
#X obj 7 319 set \$0_knob_struct px py cx cy;
#X connect 0 0 12 0;
#X connect 1 0 9 0;
#X connect 2 0 6 0;
#X connect 2 1 5 0;
#X connect 3 0 6 0;
#X connect 3 1 5 0;
#X connect 4 0 2 0;
#X connect 5 0 8 0;
#X connect 5 1 11 0;
#X connect 6 0 7 0;
#X connect 6 1 10 0;
#X connect 7 0 13 0;
#X connect 8 0 13 1;
#X connect 9 0 4 0;
#X connect 10 0 13 2;
#X connect 11 0 13 3;
#X connect 12 0 3 0;
#X connect 12 1 13 4;
#X restore 245 275 pd set;
#X obj 194 314 namecanvas \$0-knob;
#N canvas 178 192 450 300 \$0_knob_data 0;
#X scalar 1016_knob_struct -0.336669 0.725709 -0.210418 0.453568 7
17.5 321 99 9 70 \;;
#X coords -1.008 1.008 1 -1 70 70 2 0 0;
#X restore 10 10 pd \$0_knob_data;
#X obj 245 183 /;
#X obj 437 9 inlet messages;
#N canvas 641 337 450 296 init_nbx 0;
#X msg 135 77 range 0 \$1;
#X obj 135 226 s \$0_nbx_r;
#X obj 274 150 pack;
#X obj 274 72 t f f;
#X obj 274 124 int;
#X obj 135 49 r \$0_init_sens;
#X text 7 52 set range of nbx to achive higher senitivity, f 17;
#X text 315 74 set size of nbx according to knob size, f 13;
#X msg 265 177 size \$1 \$2 \, init 1;
#X obj 274 44 r \$0_init_size_nbx;
#X obj 274 100 / 20;
#X connect 0 0 1 0;
#X connect 2 0 8 0;
#X connect 3 0 10 0;
#X connect 3 1 2 1;
#X connect 4 0 2 0;
#X connect 5 0 0 0;
#X connect 8 0 1 0;
#X connect 9 0 3 0;
#X connect 10 0 4 0;
#X restore 300 120 pd init_nbx;
#X obj 263 146 r \$0_init_sens;
#N canvas 473 306 419 421 loadbang 0;
#X obj 253 198 clip 10 500;
#X obj 253 227 s \$0_init_sens;
#X obj 126 238 s \$0_init_size;
#X obj 221 141 t b b;
#X obj 221 42 loadbang;
#X obj 220 327 s \$0_loadbang;
#X text 133 269 send size of knob and mouse sensitivity to adjust nbx
settings \, then send loadbang to initialie data structure, f 39;
#X obj 126 196 max 25;
#X obj 73 331 s \$0_init_size_nbx;
#X obj 73 290 -;
#X obj 73 222 t f f;
#X obj 91 260 * 0.15;
#X obj 126 170 50;
#X obj 253 169 100;
#X obj 67 14 r \$0_messages;
#X obj 112 90 t b f;
#X obj 158 90 t b f;
#X obj 67 47 route bang size sens;
#X connect 0 0 1 0;
#X connect 3 0 5 0;
#X connect 3 1 12 0;
#X connect 3 1 13 0;
#X connect 4 0 3 0;
#X connect 7 0 2 0;
#X connect 7 0 10 0;
#X connect 9 0 8 0;
#X connect 10 0 9 0;
#X connect 10 1 11 0;
#X connect 11 0 9 1;
#X connect 12 0 7 0;
#X connect 13 0 0 0;
#X connect 14 0 17 0;
#X connect 15 0 3 0;
#X connect 15 1 12 1;
#X connect 16 0 3 0;
#X connect 16 1 13 1;
#X connect 17 0 3 0;
#X connect 17 1 15 0;
#X connect 17 2 16 0;
#X restore 299 94 pd loadbang;
#N canvas 739 337 324 390 doubleclick_rst 0;
#X obj 41 80 unpack s p f;
#X obj 41 111 select click;
#X obj 60 148 f;
#X obj 93 149 + 1;
#X msg 137 121 0;
#X obj 137 189 sel 1 0;
#X obj 60 255 ==;
#X obj 60 187 t f f;
#X obj 60 221 pipe 300;
#X obj 60 284 sel 0;
#X obj 41 48 inlet;
#X obj 60 344 outlet;
#X obj 189 90 route reset;
#X obj 60 311 0.5;
#X obj 189 63 r \$0_messages;
#N canvas 44 175 785 552 scale_range_to 0;
#X obj 294 68 r \$0_messages;
#X obj 295 96 route min max exp;
#X obj 246 182 inlet val;
#X obj 359 508 outlet;
#X obj 685 141 loadbang;
#X obj 335 284 -;
#X obj 323 259 t b f;
#X obj 287 259 t b f;
#X obj 299 284 -;
#X obj 335 307 t b f;
#X obj 335 332 /;
#X obj 342 389 t b f;
#X obj 335 422 *;
#X obj 369 442 t b f;
#X obj 364 473 +;
#X obj 585 246 t b f;
#X obj 585 273 -;
#X obj 429 286 t b f;
#X obj 510 223 0;
#X obj 598 223 1;
#X obj 698 223 1;
#X obj 327 223 0;
#X obj 417 223 1;
#X obj 355 155 nbx 5 14 -1e+37 1e+37 0 0 empty empty empty 0 -8 0 10
-262144 -1 -1 0 256;
#X obj 284 157 nbx 5 14 -1e+37 1e+37 0 0 empty empty empty 0 -8 0 10
-262144 -1 -1 0 256;
#X obj 669 105 bng 15 250 50 0 empty empty empty 17 7 0 10 -262144
-1 -1;
#X obj 335 358 expr pow($f1 \, $f2);
#X obj 487 355 /;
#X msg 486 323 1 \$1;
#X obj 541 120 max 0.1;
#X connect 0 0 1 0;
#X connect 1 0 21 0;
#X connect 1 0 24 0;
#X connect 1 1 23 0;
#X connect 1 1 22 0;
#X connect 1 2 29 0;
#X connect 2 0 8 0;
#X connect 4 0 18 0;
#X connect 4 0 19 0;
#X connect 4 0 20 0;
#X connect 4 0 21 0;
#X connect 4 0 22 0;
#X connect 5 0 9 0;
#X connect 6 0 5 0;
#X connect 6 1 5 1;
#X connect 7 0 8 0;
#X connect 7 1 8 1;
#X connect 8 0 10 0;
#X connect 9 0 10 0;
#X connect 9 1 10 1;
#X connect 10 0 26 0;
#X connect 11 0 12 0;
#X connect 11 1 12 1;
#X connect 12 0 14 0;
#X connect 13 0 14 0;
#X connect 13 1 14 1;
#X connect 14 0 3 0;
#X connect 15 0 16 0;
#X connect 15 1 16 1;
#X connect 16 0 11 0;
#X connect 17 0 26 0;
#X connect 17 1 28 0;
#X connect 18 0 15 0;
#X connect 18 0 13 0;
#X connect 19 0 16 0;
#X connect 20 0 17 0;
#X connect 21 0 6 0;
#X connect 21 0 7 0;
#X connect 22 0 5 0;
#X connect 25 0 18 0;
#X connect 25 0 19 0;
#X connect 25 0 20 0;
#X connect 26 0 12 0;
#X connect 27 0 26 1;
#X connect 28 0 27 0;
#X connect 29 0 20 0;
#X restore 189 191 pd scale_range_to 1;
#X connect 0 0 1 0;
#X connect 1 0 2 0;
#X connect 2 0 3 0;
#X connect 2 0 5 0;
#X connect 2 0 7 0;
#X connect 3 0 2 1;
#X connect 4 0 2 1;
#X connect 5 0 4 0;
#X connect 6 0 9 0;
#X connect 7 0 8 0;
#X connect 7 1 6 1;
#X connect 8 0 6 0;
#X connect 9 0 13 0;
#X connect 10 0 0 0;
#X connect 12 0 15 0;
#X connect 13 0 11 0;
#X connect 14 0 12 0;
#X connect 15 0 13 1;
#X restore 368 248 pd doubleclick_rst;
#X obj 368 277 s \$0_reset;
#X obj 79 251 r \$0_reset;
#X obj 245 95 inlet;
#X obj 193 275 outlet;
#X text 287 178 data structure template \, append and set, f 29;
#X obj 110 313 outlet nbx;
#X obj 110 276 r \$0_nbx_r;
#X obj 79 277 *;
#X obj 437 45 s \$0_messages;
#X obj 159 250 bang;
#N canvas 297 175 785 552 scale_range 0;
#X obj 87 137 inlet val;
#X obj 111 366 outlet;
#X obj 561 33 loadbang;
#X obj 87 203 expr pow($f1 \, $f2);
#X obj 94 247 t b f;
#X obj 87 280 *;
#X obj 121 300 t b f;
#X obj 116 331 +;
#X obj 287 111 t b f;
#X obj 287 138 -;
#X obj 165 163 t b f;
#X obj 227 67 0;
#X obj 300 88 1;
#X obj 400 88 1;
#X obj 259 -5 r \$0_messages;
#X obj 260 23 route min max exp;
#X obj 400 61 max 0.1;
#X connect 0 0 3 0;
#X connect 2 0 11 0;
#X connect 2 0 12 0;
#X connect 2 0 13 0;
#X connect 3 0 5 0;
#X connect 4 0 5 0;
#X connect 4 1 5 1;
#X connect 5 0 7 0;
#X connect 6 0 7 0;
#X connect 6 1 7 1;
#X connect 7 0 1 0;
#X connect 8 0 9 0;
#X connect 8 1 9 1;
#X connect 9 0 4 0;
#X connect 10 0 3 0;
#X connect 10 1 3 1;
#X connect 11 0 8 0;
#X connect 11 0 6 0;
#X connect 12 0 9 0;
#X connect 13 0 10 0;
#X connect 14 0 15 0;
#X connect 15 0 11 0;
#X connect 15 1 12 0;
#X connect 15 2 16 0;
#X connect 16 0 13 0;
#X restore 194 246 pd scale_range;
#X connect 0 0 10 0;
#X connect 1 0 2 1;
#X connect 1 0 20 0;
#X connect 5 0 2 0;
#X connect 5 0 21 0;
#X connect 6 0 19 0;
#X connect 8 0 5 1;
#X connect 8 0 18 1;
#X connect 10 0 11 0;
#X connect 12 0 18 0;
#X connect 13 0 5 0;
#X connect 17 0 16 0;
#X connect 18 0 16 0;
#X connect 20 0 16 0;
#X connect 21 0 14 0;
#X coords -1.008 1.008 1 -1 70 70 2 10 10;
