#N canvas 653 428 391 290 10;
#X obj 121 5 cnv 15 100 60 empty empty empty 20 12 0 14 -233017 -66577
0;
#X obj 25 187 i;
#X obj 53 187 + 1;
#X obj 25 232 + 1;
#X obj 25 114 inlet;
#X obj 174 117 inlet;
#X obj 25 259 outlet;
#X msg 71 160 0;
#X text 218 115 inlet changes count range;
#X text 143 24 COUNTER;
#X obj 25 138 route bang reset float;
#X text 16 66 inlet accepts 3 arguments: 'bang' \, 'reset' and float.
;
#X text 71 82 float input changes the current count value.;
#X obj 207 162 print;
#N canvas 751 110 503 525 LICENCE 0;
#X text 63 55 Attribution 4 International (CC BY 4.0) This is a human-readable
summary of (and not a substitute for) the license. Disclaimer This
license is acceptable for Free Cultural Works.;
#X text 63 131 You are free to: Share - copy and redistribute the material
in any medium or format.;
#X text 63 181 Adapt - remix \, transform \, and build upon the material
for any purpose \, even commercially.;
#X text 63 231 The licensor cannot revoke these freedoms as long as
you follow the license terms. Under the following terms:;
#X text 63 281 Attribution - You must give appropriate credit \, provide
a link to the license \, and indicate if changes were made. You may
do so in any reasonable manner \, but not in any way that suggests
the licensor endorses you or your use.;
#X text 63 357 No additional restrictions - You may not apply legal
terms or technological measures that legally restrict others from doing
anything the license permits.;
#X text 63 420 Notices: You do not have to comply with the license
for elements of the material in the public domain or where your use
is permitted by an applicable exception or limitation. No warranties
are given. The license may not give you all of the permissions necessary
for your intended use. For example \, other rights such as publicity
\, privacy \, or moral rights may limit how you use the material.;
#X text 64 19 J.R.Dooley \, 2013;
#X restore 243 33 pd LICENCE;
#X obj 25 211 % \$1;
#X connect 1 0 2 0;
#X connect 1 0 15 0;
#X connect 2 0 1 1;
#X connect 3 0 6 0;
#X connect 4 0 10 0;
#X connect 5 0 13 0;
#X connect 5 0 15 1;
#X connect 7 0 1 1;
#X connect 10 0 1 0;
#X connect 10 1 7 0;
#X connect 10 2 1 1;
#X connect 15 0 3 0;
#X coords 0 0 1 1 40 60 0;
