#N canvas 164 490 365 426 10;
#X obj 20 73 bng 15 250 50 0 empty empty empty 17 7 0 10 -262144 -1
-1;
#X obj 20 93 s \$0-reset;
#X obj 30 46 loadbang;
#X obj 20 5 inlet RESET;
#X obj 20 187 r \$0-ctl-out;
#X obj 20 339 outlet;
#X obj 194 187 r \$0-bank;
#X obj 194 339 outlet;
#X obj 207 305 s;
#X obj 207 232 unpack f f;
#X obj 264 276 symbol;
#X obj 30 285 s;
#X obj 30 212 unpack f f;
#X obj 87 257 symbol;
#X text 137 19 \$1 = MIDI Channel;
#N canvas 0 93 158 229 CC_IN_PARSE______ 0;
#X obj 27 34 ctlin;
#X obj 27 135 s \$0-ctl-out;
#X obj 27 62 sel \$1;
#X obj 27 83 pack f f f;
#X msg 27 104 \$2 \$3;
#X connect 0 0 3 1;
#X connect 0 1 3 2;
#X connect 0 2 2 0;
#X connect 2 0 3 0;
#X connect 3 0 4 0;
#X connect 4 0 1 0;
#X restore 19 146 pd CC_IN_PARSE______;
#N canvas 1137 387 364 379 NOTE_IN_OUT______ 0;
#X obj 34 39 pack f f;
#X msg 34 65 \$2 \$1;
#X obj 34 87 route 127;
#X obj 34 16 notein \$1;
#X obj 34 129 tabread \$0-note;
#X obj 34 149 sel 0 127;
#X msg 34 170 127;
#X msg 63 171 0;
#X obj 61 221 tabwrite \$0-note;
#X obj 34 108 t f f;
#X obj 34 196 t f f;
#X obj 34 247 pack f f;
#X obj 34 296 unpack f f;
#X msg 34 270 \$2 \$1;
#X obj 34 318 noteout \$1;
#X text 175 51 98 = shift key;
#X text 182 219 4 = flashing red;
#X text 182 190 2 = flashing green;
#X text 182 235 5 = orange;
#X text 182 250 6= = flashing orange;
#X text 183 173 1 = green;
#X text 181 204 3 = red \;;
#X obj 113 293 s \$0-bank;
#X obj 166 128 array define \$0-note 127;
#X connect 0 0 1 0;
#X connect 1 0 2 0;
#X connect 2 0 9 0;
#X connect 3 0 0 0;
#X connect 3 1 0 1;
#X connect 4 0 5 0;
#X connect 5 0 6 0;
#X connect 5 1 7 0;
#X connect 6 0 10 0;
#X connect 7 0 10 0;
#X connect 9 0 4 0;
#X connect 9 1 8 1;
#X connect 9 1 11 1;
#X connect 10 0 11 0;
#X connect 10 1 8 0;
#X connect 11 0 13 0;
#X connect 12 0 14 0;
#X connect 12 1 14 1;
#X connect 13 0 12 0;
#X connect 13 0 22 0;
#X restore 19 125 pd NOTE_IN_OUT______;
#X msg 87 235 APCmini-cc-\$1;
#X msg 264 254 APCmini-n-\$1;
#X msg 207 212 \$2 \$1;
#X obj 112 194 print;
#X connect 0 0 1 0;
#X connect 2 0 0 0;
#X connect 3 0 0 0;
#X connect 4 0 5 0;
#X connect 4 0 12 0;
#X connect 4 0 20 0;
#X connect 6 0 7 0;
#X connect 6 0 19 0;
#X connect 9 0 8 0;
#X connect 9 1 18 0;
#X connect 10 0 8 1;
#X connect 12 0 11 0;
#X connect 12 1 17 0;
#X connect 13 0 11 1;
#X connect 17 0 13 0;
#X connect 18 0 10 0;
#X connect 19 0 9 0;
