#N struct 1007-struct float x0 float y0 float c;
#N canvas 490 287 724 308 10;
#X obj 49 130 namecanvas \$0-this;
#N canvas 495 457 452 162 \$0-struct-template 0;
#X obj 30 30 struct 1007-struct float x0 float y0 float c;
#X obj 30 53 s 1007-struct-out;
#X obj 30 76 filledpolygon c 0 1 x0(0:190)(0:190) y0(0:190)(0:190)
x0(0:190)(10:200) y0(0:190)(0:190) x0(0:190)(10:200) y0(0:190)(10:200)
x0(0:190)(0:190) y0(0:190)(10:200);
#X connect 0 0 1 0;
#X restore 49 108 pd \$0-struct-template;
#X floatatom 211 155 5 0 0 2 x #0-x #0-nos;
#X floatatom 251 155 5 0 0 2 y #0-y #0-nos;
#X obj 500 30 cnv 15 200 200 empty empty empty 20 12 0 14 -261682 -66577
0;
#N canvas 0 16 999 675 \$0-display 0;
#X scalar 1007-struct 95 95 9 \;;
#X coords 0 200 200 0 200 200 2 0 0;
#X restore 500 30 pd \$0-display;
#N canvas 0 22 529 581 SET_SIZE____ 0;
#X obj 37 37 inlet;
#X obj 178 490 pointer;
#X obj 178 444 \$0;
#X msg 178 467 traverse pd-\$1-display \, bang;
#X obj 65 329 s pd-\$0-display;
#X obj 51 375 s \$0-this;
#X obj 37 536 s \$0-pointer;
#X obj 37 513 append \$0-struct x0 y0 c;
#X obj 79 145 pack;
#X obj 329 168 s pd-\$0-display;
#X msg 179 122 clear;
#X obj 79 168 list prepend \$0;
#X msg 51 352 coords 0 0 \$1 \$1 \$1 \$1 2 500 30;
#X obj 79 283 s pd-\$0-struct-template;
#X msg 37 490 \$1 \$1 9;
#X obj 37 398 / 2;
#X obj 37 444 i;
#X obj 37 467 - 5;
#X msg 65 306 coords 0 \$1 \$1 0 \$1 \$1 2 0 0;
#X obj 78 80 nbx 5 14 0 1e+37 0 1 empty empty size 0 -8 0 10 -262144
-1 -1 200 256;
#X obj 100 122 - 10;
#X obj 37 99 t f f f f f b b f;
#X obj 226 122 s \$0-size;
#X obj 37 421 + 0.5;
#X msg 79 191 obj 30 30 struct \$1-struct float x0 float y0 float c
\, obj 30 53 s \$1-struct-out \, connect 0 0 1 0 \, obj 30 76 filledpolygon
c 0 1 x0(0:\$3)(0:\$3) y0(0:\$3)(0:\$3) x0(0:\$3)(10:\$2) y0(0:\$3)(0:\$3)
x0(0:\$3)(10:\$2) y0(0:\$3)(10:\$2) x0(0:\$3)(0:\$3) y0(0:\$3)(10:\$2)
;
#X obj 179 168 s pd-\$0-struct-template;
#X obj 179 145 t a a;
#X connect 0 0 21 0;
#X connect 1 0 7 3;
#X connect 2 0 3 0;
#X connect 3 0 1 0;
#X connect 7 0 6 0;
#X connect 8 0 11 0;
#X connect 10 0 26 0;
#X connect 11 0 24 0;
#X connect 12 0 5 0;
#X connect 14 0 7 0;
#X connect 15 0 23 0;
#X connect 16 0 17 0;
#X connect 17 0 14 0;
#X connect 18 0 4 0;
#X connect 19 0 21 0;
#X connect 20 0 8 1;
#X connect 21 0 15 0;
#X connect 21 1 12 0;
#X connect 21 2 18 0;
#X connect 21 3 8 0;
#X connect 21 4 20 0;
#X connect 21 5 2 0;
#X connect 21 6 10 0;
#X connect 21 7 22 0;
#X connect 23 0 16 0;
#X connect 24 0 13 0;
#X connect 26 0 25 0;
#X connect 26 1 9 0;
#X restore 203 81 pd SET_SIZE____;
#N canvas 0 22 370 402 READ_POSITION____ 0;
#X obj 56 30 r \$0-struct-out;
#X obj 56 53 unpack s p;
#X obj 56 122 get \$0-struct x0 y0;
#X obj 56 76 sel change;
#X obj 56 99 pointer;
#X obj 211 145 r \$0-size;
#X obj 56 214 /;
#X obj 167 214 /;
#X obj 56 191 *;
#X obj 167 191 *;
#X obj 56 237 + 0.5;
#X obj 167 237 + 0.5;
#X obj 56 260 i;
#X obj 167 260 i;
#X obj 211 191 - 10;
#X obj 56 366 outlet;
#X obj 100 145 r \$0-size;
#X obj 100 191 - 10;
#X obj 56 303 pack;
#X obj 71 168 - 1;
#X obj 182 168 - 1;
#X obj 56 281 / 199;
#X obj 168 282 / 199;
#X connect 0 0 1 0;
#X connect 1 0 3 0;
#X connect 1 1 4 1;
#X connect 2 0 8 0;
#X connect 2 1 9 0;
#X connect 3 0 4 0;
#X connect 4 0 2 0;
#X connect 5 0 14 0;
#X connect 5 0 20 0;
#X connect 6 0 10 0;
#X connect 7 0 11 0;
#X connect 8 0 6 0;
#X connect 9 0 7 0;
#X connect 10 0 12 0;
#X connect 11 0 13 0;
#X connect 12 0 21 0;
#X connect 13 0 22 0;
#X connect 14 0 7 1;
#X connect 16 0 17 0;
#X connect 16 0 19 0;
#X connect 17 0 6 1;
#X connect 18 0 15 0;
#X connect 19 0 8 1;
#X connect 20 0 9 1;
#X connect 21 0 18 0;
#X connect 22 0 18 1;
#X restore 48 152 pd READ_POSITION____;
#X obj 48 253 outlet;
#N canvas 0 22 380 300 SET_POSITION___ 0;
#X obj 37 47 inlet;
#X floatatom 37 148 5 0 0 0 - - -;
#X floatatom 97 146 5 0 0 0 - - -;
#X obj 211 89 bng 15 250 50 0 empty empty empty 17 7 0 10 -262144 -1
-1;
#X obj 156 114 \$0;
#X obj 156 156 pointer;
#X msg 156 135 traverse pd-\$1-display \, next;
#X obj 37 178 set \$0-struct x0 y0;
#X obj 37 84 unpack f f;
#X obj 37 125 * 200;
#X obj 37 105 clip 0 1;
#X obj 97 125 * 200;
#X obj 97 105 clip 0 1;
#X obj 156 88 loadbang;
#X connect 0 0 8 0;
#X connect 1 0 7 0;
#X connect 2 0 7 1;
#X connect 3 0 4 0;
#X connect 4 0 6 0;
#X connect 5 0 7 2;
#X connect 6 0 5 0;
#X connect 8 0 10 0;
#X connect 8 1 12 0;
#X connect 9 0 1 0;
#X connect 10 0 9 0;
#X connect 11 0 2 0;
#X connect 12 0 11 0;
#X connect 13 0 4 0;
#X restore 49 86 pd SET_POSITION___;
#X text 313 3 XY GUI;
#X obj 49 24 inlet xy-coords;
#X floatatom 203 60 5 0 0 0 - - -;
#X connect 7 0 8 0;
#X connect 11 0 9 0;
#X connect 12 0 6 0;
#X coords 0 0 200 200 200 200 2 500 30;
