#N struct 1009-struct float x0 float y0 float c;
#N canvas 576 132 453 453 12;
#X obj 66 368 unpack f f;
#X floatatom 66 392 5 0 0 1 x - -;
#X floatatom 133 392 5 0 0 1 y - -;
#X floatatom 66 60 5 0 1 1 x - -;
#X floatatom 123 60 5 0 1 1 y - -;
#X obj 66 136 pack f f;
#X obj 66 113 f;
#X obj 123 84 t b f;
#X text 29 11 xy /// generic XY panner for interface scaled from 0
\, 0 (bottom left) to 1 \, 1 (top right);
#X obj 66 163 flib.gui.xy;
#X connect 0 0 1 0;
#X connect 0 1 2 0;
#X connect 3 0 6 0;
#X connect 4 0 7 0;
#X connect 5 0 9 0;
#X connect 6 0 5 0;
#X connect 7 0 6 0;
#X connect 7 1 5 1;
#X connect 9 0 0 0;
