#N canvas 784 405 481 171 10;
#N canvas 474 65 298 660 SQUARE_TO_CIRCLE_____ 0;
#X obj 41 520 list prepend send;
#X obj 41 542 list trim;
#X obj 41 499 oscformat ambi_enc_set;
#X msg 41 70 \$2 \$1;
#X obj 41 262 unpack f f;
#X obj 41 324 f;
#X obj 41 346 atan2;
#X obj 98 286 t b f;
#X obj 41 368 * 180;
#X obj 41 390 / 3.14159;
#X obj 153 300 -;
#X msg 153 278 180 \$1;
#X obj 153 145 unpack f f;
#X obj 153 167 abs;
#X obj 210 165 abs;
#X obj 210 187 pow 2;
#X obj 153 189 pow 2;
#X obj 153 211 +;
#X obj 153 233 sqrt;
#X obj 153 257 min 180;
#X obj 153 320 * 0.5;
#X obj 41 451 pack f f f;
#X obj 180 383 min 1;
#X obj 180 361 / 75;
#X obj 180 405 pow 2;
#X msg 41 476 1 0 \$1 \$2 \$3;
#X obj 41 91 t a a;
#X obj 153 341 t f f;
#X obj 41 593 outlet;
#X obj 41 28 inlet;
#X connect 0 0 1 0;
#X connect 1 0 28 0;
#X connect 2 0 0 0;
#X connect 3 0 26 0;
#X connect 4 0 5 0;
#X connect 4 1 7 0;
#X connect 5 0 6 0;
#X connect 6 0 8 0;
#X connect 7 0 5 0;
#X connect 7 1 6 1;
#X connect 8 0 9 0;
#X connect 9 0 21 0;
#X connect 10 0 20 0;
#X connect 11 0 10 0;
#X connect 12 0 13 0;
#X connect 12 1 14 0;
#X connect 13 0 16 0;
#X connect 14 0 15 0;
#X connect 15 0 17 1;
#X connect 16 0 17 0;
#X connect 17 0 18 0;
#X connect 18 0 19 0;
#X connect 19 0 11 0;
#X connect 20 0 27 0;
#X connect 21 0 25 0;
#X connect 22 0 24 0;
#X connect 23 0 22 0;
#X connect 24 0 21 2;
#X connect 25 0 2 0;
#X connect 26 0 4 0;
#X connect 26 1 12 0;
#X connect 27 0 21 1;
#X connect 27 1 23 0;
#X connect 29 0 3 0;
#X restore 29 104 pd SQUARE_TO_CIRCLE_____;
#X obj 29 148 outlet;
#X obj 29 62 inlet;
#X text 190 47 INLETS \; 1st = X \, Y coordinate pair (-180 - 180)
;
#X text 40 5 ambix /// square to circle coordinate converter and OSC
encoder for Ambix VST plugin;
#X connect 0 0 1 0;
#X connect 2 0 0 0;
