#N canvas 354 194 279 366 10;
#X obj 53 38 inlet;
#X obj 101 38 inlet list;
#X text 92 7 list extract;
#X msg 93 279 \$1;
#X msg 92 179 set;
#X msg 72 207 adddollar \$1;
#X obj 53 241 list;
#X obj 53 154 t b f b;
#X obj 93 321 outlet;
#X obj 128 92 list length;
#X obj 101 68 t a a;
#X obj 53 132 clip 1 1;
#X connect 0 0 11 0;
#X connect 1 0 10 0;
#X connect 3 0 8 0;
#X connect 4 0 3 0;
#X connect 5 0 3 0;
#X connect 6 0 3 0;
#X connect 7 0 6 0;
#X connect 7 1 5 0;
#X connect 7 2 4 0;
#X connect 9 0 11 2;
#X connect 10 0 6 1;
#X connect 10 1 9 0;
#X connect 11 0 7 0;
