#N canvas 185 77 460 312 10;
#X obj 16 202 flib.fx.spectralfreeze~;
#X text 119 11 spectralfreeze~ /// stereo spectral freeze;
#N canvas 0 22 236 308 SOUND_SOURCE__ 0;
#X obj 75 37 loadbang;
#X obj 75 58 metro 500;
#X obj 75 79 random 64;
#X obj 75 100 + 32;
#X obj 75 121 mtof;
#X obj 75 142 osc~;
#X obj 75 183 *~;
#X obj 75 204 *~ 0.1;
#X obj 109 164 osc~;
#X obj 109 139 * 0.25;
#X obj 75 255 outlet~;
#X connect 0 0 1 0;
#X connect 1 0 2 0;
#X connect 2 0 3 0;
#X connect 3 0 4 0;
#X connect 4 0 5 0;
#X connect 4 0 9 0;
#X connect 5 0 6 0;
#X connect 6 0 7 0;
#X connect 7 0 10 0;
#X connect 8 0 6 1;
#X connect 9 0 8 0;
#X restore 16 108 pd SOUND_SOURCE__;
#X msg 169 69 freeze;
#X msg 181 91 clear;
#X msg 195 112 reset;
#X msg 201 166 windowSize \$1;
#X floatatom 201 146 5 0 0 1 powers_of_2_only_(512_1024_2048_etc) -
-;
#X obj 16 287 dac~ 1 2;
#X connect 0 0 8 0;
#X connect 0 1 8 1;
#X connect 2 0 0 0;
#X connect 2 0 0 1;
#X connect 3 0 0 2;
#X connect 4 0 0 2;
#X connect 5 0 0 2;
#X connect 6 0 0 2;
#X connect 7 0 6 0;
#X coords 0 312 1 311 180 90 0;
