#N canvas 741 149 363 341 10;
#X obj 24 163 flib.audio.1to2~;
#X obj 24 244 dac~ 1;
#X obj 117 244 dac~ 2;
#X obj 24 142 *~ 0.1;
#X obj 24 86 osc~ 440;
#X obj 120 125 hsl 128 15 0 1 0 0 empty empty 0-1 2 8 0 10 -262144
-1 -1 0 1;
#X text 19 23 1to2~ /// splits an incoming signal into two outputs.
Panning between the two outputs uses a cosine crossfade;
#X connect 0 0 1 0;
#X connect 0 1 2 0;
#X connect 3 0 0 0;
#X connect 4 0 3 0;
#X connect 5 0 0 1;
