#N canvas 689 338 564 467 10;
#X obj 56 36 inlet;
#X obj 56 406 outlet;
#X text 147 10 MIDI binary state convert;
#X obj 316 189 sel 0;
#X obj 169 35 inlet EXP_SCALER;
#X obj 299 35 inlet MULTIPLIER;
#X obj 429 35 inlet OFFSET;
#X text 73 144 <- rescales 0-127 to 0-1;
#X obj 316 123 loadbang;
#X obj 169 57 s \$0-exp;
#X obj 299 57 s \$0-mul;
#X obj 429 57 s \$0-off;
#X obj 88 195 r \$0-exp;
#X obj 316 213 s \$0-exp;
#X obj 74 244 r \$0-mul;
#X obj 74 298 r \$0-off;
#X obj 381 188 sel 0;
#X obj 445 211 s \$0-off;
#X text 252 337 \$1 = exponential scaling (default 1) \; \$2 = Multiplier
(default 1) \; \$3 = Offset (default 0);
#X obj 56 217 pow 1;
#X obj 56 267 * 1;
#X obj 56 319 + 0;
#X obj 316 165 \$1;
#X obj 381 167 \$2;
#X obj 445 168 \$3;
#X obj 381 212 s \$0-mul;
#X obj 135 354 i;
#X obj 135 406 outlet;
#X obj 56 164 * 0.00787402;
#X connect 0 0 28 0;
#X connect 3 1 13 0;
#X connect 4 0 9 0;
#X connect 5 0 10 0;
#X connect 6 0 11 0;
#X connect 8 0 22 0;
#X connect 8 0 23 0;
#X connect 8 0 24 0;
#X connect 12 0 19 1;
#X connect 14 0 20 1;
#X connect 15 0 21 1;
#X connect 16 1 25 0;
#X connect 19 0 20 0;
#X connect 20 0 21 0;
#X connect 21 0 1 0;
#X connect 21 0 26 0;
#X connect 22 0 3 0;
#X connect 23 0 16 0;
#X connect 24 0 17 0;
#X connect 26 0 27 0;
#X connect 28 0 19 0;
