#N canvas 129 86 961 767 10;
#X obj 349 239 route orientation;
#X obj 349 261 route scaled;
#X obj 349 283 unpack f f f;
#X obj 577 240 route emg;
#X obj 577 262 route scaled;
#X obj 577 284 route abs;
#X obj 577 328 route mavg;
#X obj 577 305 route mav;
#X obj 349 97 oscparse;
#X obj 349 119 list trim;
#X obj 349 61 inlet;
#X obj 349 629 s \$0-YAW;
#X obj 349 563 *;
#X obj 349 584 i;
#X obj 349 605 /;
#X obj 354 539 r \$0-XYZ-RESOLUTION;
#X obj 383 445 *;
#X obj 383 466 i;
#X obj 383 487 /;
#X obj 388 421 r \$0-XYZ-RESOLUTION;
#X obj 383 510 s \$0-PITCH;
#X obj 418 333 *;
#X obj 418 354 i;
#X obj 418 375 /;
#X obj 423 309 r \$0-XYZ-RESOLUTION;
#X obj 418 398 s \$0-ROLL;
#X obj 349 170 t a a;
#X obj 577 374 *;
#X obj 577 395 i;
#X obj 577 416 /;
#X floatatom 577 437 0 0 0 0 - - -;
#X obj 577 460 s \$0-EMG;
#X obj 582 350 r \$0-EMG-RESOLUTION;
#X obj 101 119 cnv 15 100 150 empty empty empty 20 12 0 14 -106486
-66577 0;
#X obj 106 134 hradio 15 1 0 6 empty empty XYZ_RESOLUTION 0 -8 0 10
-262144 -1 -1 2;
#X obj 212 166 t b f;
#X msg 212 187 10;
#X obj 212 224 pow;
#X obj 240 188 + 1;
#X floatatom 142 153 0 0 0 0 YAW: #0-YAW -;
#X obj 212 245 s \$0-XYZ-RESOLUTION;
#X obj 106 230 hradio 15 1 0 6 empty empty EMG_RESOLUTION 0 -8 0 10
-262144 -1 -1 2;
#X obj 106 282 t b f;
#X msg 106 303 10;
#X obj 106 340 pow;
#X obj 134 304 + 1;
#X obj 106 361 s \$0-EMG-RESOLUTION;
#X floatatom 142 170 0 0 0 0 PITCH: #0-PITCH -;
#X floatatom 142 187 0 0 0 0 ROLL: #0-ROLL -;
#X floatatom 141 247 0 0 0 0 EMG: #0-EMG -;
#X obj 184 50 loadbang;
#X msg 184 71 2;
#X obj 338 684 outlet;
#X obj 426 682 outlet;
#X obj 496 679 outlet;
#X obj 580 676 outlet;
#X obj 349 143 route myo\$1;
#X text 491 72 \$1 = myo instance;
#X connect 0 0 1 0;
#X connect 1 0 2 0;
#X connect 2 0 12 0;
#X connect 2 1 16 0;
#X connect 2 2 21 0;
#X connect 3 0 4 0;
#X connect 4 0 5 0;
#X connect 5 0 7 0;
#X connect 6 0 27 0;
#X connect 7 0 6 0;
#X connect 8 0 9 0;
#X connect 9 0 56 0;
#X connect 10 0 8 0;
#X connect 12 0 13 0;
#X connect 13 0 14 0;
#X connect 14 0 11 0;
#X connect 14 0 52 0;
#X connect 15 0 12 1;
#X connect 15 0 14 1;
#X connect 16 0 17 0;
#X connect 17 0 18 0;
#X connect 18 0 20 0;
#X connect 18 0 53 0;
#X connect 19 0 16 1;
#X connect 19 0 18 1;
#X connect 21 0 22 0;
#X connect 22 0 23 0;
#X connect 23 0 25 0;
#X connect 23 0 54 0;
#X connect 24 0 21 1;
#X connect 24 0 23 1;
#X connect 26 0 0 0;
#X connect 26 1 3 0;
#X connect 27 0 28 0;
#X connect 28 0 29 0;
#X connect 29 0 30 0;
#X connect 30 0 31 0;
#X connect 30 0 55 0;
#X connect 32 0 27 1;
#X connect 32 0 29 1;
#X connect 34 0 35 0;
#X connect 35 0 36 0;
#X connect 35 1 38 0;
#X connect 36 0 37 0;
#X connect 37 0 40 0;
#X connect 38 0 37 1;
#X connect 41 0 42 0;
#X connect 42 0 43 0;
#X connect 42 1 45 0;
#X connect 43 0 44 0;
#X connect 44 0 46 0;
#X connect 45 0 44 1;
#X connect 50 0 51 0;
#X connect 51 0 34 0;
#X connect 51 0 41 0;
#X connect 56 0 26 0;
#X coords 0 -1 1 1 102 170 1 100 100;
