#N canvas 495 352 458 251 10;
#X text 61 9 transfunc ///// transfer function with skew functionality
;
#X floatatom 27 93 5 0 1 1 INPUT_(0-1) - -;
#X obj 27 161 flib.util.transfunc 2 3;
#X floatatom 94 115 5 0 0 1 EXPONENTIAL_CURVE_VALUE - -;
#X floatatom 162 135 5 0 0 1 EXPONENTIAL_CURVE_SKEW - -;
#X obj 30 72 hsl 128 15 0 1 0 0 empty empty empty -2 -8 0 10 -262144
-1 -1 0 1;
#X floatatom 27 182 5 0 0 0 - - -;
#X obj 30 202 hsl 128 15 0 1 0 0 empty empty empty -2 -8 0 10 -262144
-1 -1 0 1;
#X connect 1 0 2 0;
#X connect 2 0 6 0;
#X connect 3 0 2 1;
#X connect 4 0 2 2;
#X connect 5 0 1 0;
#X connect 6 0 7 0;
