#N canvas 1 58 297 521 10;
#X obj 51 271 lop~ 2000;
#X obj 51 297 lop~ 2000;
#X obj 51 324 samphold~;
#X obj 136 183 mtof~;
#X obj 136 205 phasor~;
#X obj 136 249 *~ 2;
#X obj 136 271 -~ 1;
#X obj 51 56 inlet~;
#X obj 136 227 expr~ $v1 > 0.5;
#X text 43 33 SIGNAL IN;
#X obj 51 346 lop~ 2000;
#X obj 51 368 lop~ 2000;
#X obj 51 476 outlet~;
#X obj 51 448 *~ 0.5;
#X obj 136 54 inlet;
#X obj 136 164 sig~;
#X obj 136 142 * 127;
#X obj 136 81 clip 0 1;
#X msg 136 102 1 \$1;
#X obj 136 123 -;
#X connect 0 0 1 0;
#X connect 1 0 2 0;
#X connect 2 0 10 0;
#X connect 3 0 4 0;
#X connect 4 0 8 0;
#X connect 5 0 6 0;
#X connect 6 0 2 1;
#X connect 7 0 0 0;
#X connect 8 0 5 0;
#X connect 10 0 11 0;
#X connect 11 0 13 0;
#X connect 13 0 12 0;
#X connect 14 0 17 0;
#X connect 15 0 3 0;
#X connect 16 0 15 0;
#X connect 17 0 18 0;
#X connect 18 0 19 0;
#X connect 19 0 16 0;
