#N canvas 99 318 429 318 10;
#X obj 210 78 flib.gui.adsr;
#X obj 47 244 flib.audio.adsr~;
#X obj 210 183 unpack f f f f;
#X obj 142 124 bng 15 250 50 0 empty empty empty 17 7 0 10 -262144
-1 -1;
#X obj 142 144 t b b;
#X msg 142 186 0;
#X msg 171 183 1;
#X obj 142 165 del 100;
#X text 61 17 adsr /// GUI widget for controlling ADSR values;
#X obj 32 192 osc~ 440;
#X obj 32 213 *~ 0.1;
#X obj 32 264 *~;
#X obj 32 285 dac~ 1 2;
#X text 64 124 click me ->;
#X connect 0 0 2 0;
#X connect 1 0 11 1;
#X connect 2 0 1 1;
#X connect 2 1 1 2;
#X connect 2 2 1 3;
#X connect 2 3 1 4;
#X connect 3 0 4 0;
#X connect 4 0 7 0;
#X connect 4 1 6 0;
#X connect 5 0 1 0;
#X connect 6 0 1 0;
#X connect 7 0 5 0;
#X connect 9 0 10 0;
#X connect 10 0 11 0;
#X connect 11 0 12 0;
#X connect 11 0 12 1;
#X coords 0 318 1 317 185 100 0;
