#N canvas 247 359 370 248 10;
#X text 96 25 Linkwitz-Riley crossover;
#X obj 78 131 flib.audio.crossoverfilter~ 1000;
#X obj 78 152 dac~ 1;
#X obj 242 152 dac~ 2;
#X obj 78 82 noise~;
#X floatatom 154 106 5 1 22050 1 crossover_frequency_(Hz) - -;
#X obj 78 103 *~ 0.05;
#X text 67 172 Low pass;
#X text 239 175 high pass;
#X connect 1 0 2 0;
#X connect 1 1 3 0;
#X connect 4 0 6 0;
#X connect 5 0 1 1;
#X connect 6 0 1 0;
