#N canvas 1240 361 599 679 10;
#X obj 47 594 outlet;
#X obj 48 24 inlet;
#X obj 48 438 s \$0-sequencer;
#X obj 95 399 s \$0-random-add;
#X obj 119 380 s \$0-random-drop;
#X obj 143 360 s \$0-euclid;
#X obj 167 340 s \$0-euclid-steps;
#X obj 190 321 s \$0-euclid-offset;
#X obj 71 420 s \$0-seq-write;
#X obj 238 283 s \$0-seq-invert;
#X obj 214 302 s \$0-seq-length;
#X obj 243 597 s \$1-seq-euclid-steps-OUT;
#N canvas 0 22 311 308 SEQ_WRITE_____________ 0;
#X msg 41 95 \$2 \$1;
#X obj 41 117 unpack;
#X obj 41 219 tabwrite \$0-sequencer;
#X obj 153 196 - 1;
#X obj 153 82 t f b;
#X obj 153 104 until;
#X obj 153 126 i;
#X obj 183 126 + 1;
#X obj 153 150 t b f;
#X msg 198 102 0;
#X msg 153 172 0;
#X msg 153 60 64;
#X obj 41 246 table \$0-sequencer 64;
#X obj 153 38 r \$0-reset;
#X obj 41 73 r \$0-seq-write;
#X connect 0 0 1 0;
#X connect 1 0 2 0;
#X connect 1 1 3 0;
#X connect 3 0 2 1;
#X connect 4 0 5 0;
#X connect 4 1 9 0;
#X connect 5 0 6 0;
#X connect 6 0 7 0;
#X connect 6 0 8 0;
#X connect 7 0 6 1;
#X connect 8 0 10 0;
#X connect 8 1 2 1;
#X connect 9 0 6 1;
#X connect 10 0 2 0;
#X connect 11 0 4 0;
#X connect 13 0 11 0;
#X connect 14 0 0 0;
#X restore 47 490 pd SEQ_WRITE_____________;
#N canvas 1414 12 362 565 SEQ_READ______________ 0;
#X obj 46 513 outlet;
#X obj 46 377 tabread \$0-sequencer;
#X obj 46 438 == 1;
#X obj 46 343 flib.util.switch;
#X obj 46 311 spigot 0;
#X obj 91 292 r \$0-sequencer;
#X obj 204 518 outlet to-euclid;
#X obj 159 323 r \$0-euclid;
#X obj 67 398 r \$0-seq-invert;
#X obj 46 226 flib.seq.warp;
#X obj 46 267 flib.seq.delay;
#X obj 127 247 r \$0-delay;
#X obj 121 206 r \$0-seq-length;
#X obj 83 187 r \$0-warp;
#X obj 46 163 flib.seq.swing;
#X obj 127 144 r \$0-swing;
#X obj 46 135 mod 16;
#X obj 79 115 r \$0-seq-length;
#X obj 46 65 flib.seq.beatdivision;
#X obj 46 27 r \$0-beat;
#X obj 107 27 r \$0-timebase;
#X obj 169 46 r \$0-timebase-multiplier;
#N canvas 0 22 329 300 SEQUENCER_SYNCHRONY 0;
#X obj 176 114 == 0;
#X obj 58 177 f;
#X obj 83 177 + 1;
#X obj 58 134 spigot 0;
#X obj 131 135 spigot 1;
#X obj 58 156 t b;
#X obj 58 10 inlet;
#X obj 58 269 outlet;
#X obj 176 70 r \$0-beat-sync;
#X connect 0 0 4 1;
#X connect 1 0 2 0;
#X connect 1 0 7 0;
#X connect 2 0 1 1;
#X connect 3 0 5 0;
#X connect 4 0 1 1;
#X connect 4 0 7 0;
#X connect 5 0 1 0;
#X connect 6 0 4 0;
#X connect 6 0 3 0;
#X connect 8 0 0 0;
#X connect 8 0 3 1;
#X restore 46 90 pd SEQUENCER_SYNCHRONY;
#N canvas 0 22 385 385 RANDOM_ADD_DROP___ 0;
#X obj 223 231 t b;
#X obj 223 102 random 100;
#X obj 223 207 moses 0;
#X obj 262 164 * 100;
#X obj 56 98 random 100;
#X obj 95 233 t b;
#X obj 56 66 sel 1 0;
#X obj 95 163 * 100;
#X obj 95 185 i;
#X obj 262 186 i;
#X msg 95 278 1;
#X obj 262 144 pow 2.7;
#X obj 95 141 pow 2.7;
#X obj 56 210 moses 0;
#X obj 262 122 r \$0-random-add;
#X obj 95 119 r \$0-random-drop;
#X obj 56 16 inlet;
#X obj 95 339 outlet;
#X connect 0 0 10 0;
#X connect 1 0 2 0;
#X connect 2 0 0 0;
#X connect 3 0 9 0;
#X connect 4 0 13 0;
#X connect 5 0 10 0;
#X connect 6 0 4 0;
#X connect 6 1 1 0;
#X connect 7 0 8 0;
#X connect 8 0 13 1;
#X connect 9 0 2 1;
#X connect 10 0 17 0;
#X connect 11 0 3 0;
#X connect 12 0 7 0;
#X connect 13 1 5 0;
#X connect 14 0 11 0;
#X connect 15 0 12 0;
#X connect 16 0 6 0;
#X restore 46 464 pd RANDOM_ADD_DROP___;
#X obj 67 419 == 0;
#X connect 1 0 2 0;
#X connect 2 0 23 0;
#X connect 3 0 1 0;
#X connect 3 1 6 0;
#X connect 4 0 3 0;
#X connect 5 0 4 1;
#X connect 7 0 3 1;
#X connect 8 0 24 0;
#X connect 9 0 10 0;
#X connect 10 0 4 0;
#X connect 11 0 10 1;
#X connect 12 0 9 2;
#X connect 13 0 9 1;
#X connect 14 0 9 0;
#X connect 15 0 14 1;
#X connect 16 0 14 0;
#X connect 17 0 16 1;
#X connect 18 0 22 0;
#X connect 19 0 18 0;
#X connect 20 0 18 1;
#X connect 21 0 18 2;
#X connect 22 0 16 0;
#X connect 23 0 0 0;
#X connect 24 0 2 1;
#X restore 47 513 pd SEQ_READ______________;
#N canvas 121 473 399 544 EUCLIDEAN_RHYTHMS__ 0;
#X obj 69 272 flib.util.euclid;
#X obj 100 206 *;
#X obj 100 184 f;
#X obj 110 160 t b f;
#X obj 100 227 i;
#X obj 240 181 *;
#X obj 240 159 f;
#X obj 250 135 t b f;
#X obj 240 202 i;
#X obj 69 379 spigot 0;
#X obj 114 357 f;
#X obj 69 335 sel 1;
#X obj 114 337 r \$0-sequencer;
#X obj 250 114 r \$0-seq-length;
#X obj 110 139 r \$0-seq-length;
#X obj 69 440 outlet;
#X obj 179 442 outlet euclid-steps;
#X obj 69 24 inlet;
#X obj 100 119 r \$0-euclid-steps;
#X obj 240 91 r \$0-euclid-offset;
#X msg 69 400 1;
#X obj 96 315 == 0;
#X obj 96 294 r \$0-seq-invert;
#X connect 0 0 11 0;
#X connect 1 0 4 0;
#X connect 2 0 1 0;
#X connect 3 0 2 0;
#X connect 3 1 1 1;
#X connect 3 1 0 3;
#X connect 4 0 0 1;
#X connect 4 0 16 0;
#X connect 5 0 8 0;
#X connect 6 0 5 0;
#X connect 7 0 6 0;
#X connect 7 1 5 1;
#X connect 8 0 0 2;
#X connect 9 0 20 0;
#X connect 10 0 9 1;
#X connect 11 0 9 0;
#X connect 12 0 10 0;
#X connect 13 0 7 0;
#X connect 14 0 3 0;
#X connect 17 0 0 0;
#X connect 18 0 2 0;
#X connect 19 0 6 0;
#X connect 20 0 15 0;
#X connect 21 0 11 1;
#X connect 22 0 21 0;
#X restore 65 536 pd EUCLIDEAN_RHYTHMS__;
#X obj 194 596 outlet;
#X obj 262 265 s \$0-timebase;
#X obj 286 244 s \$0-timebase-multiplier;
#X obj 48 74 route seq seqwrite randomadd randomdrop euclid euclidsteps
euclidoffset seqlength seqinvert timebase timebasemultiplier beatsync
swing warp delay reset;
#X obj 409 123 s \$0-beat;
#X obj 385 142 s \$0-reset;
#X obj 371 161 s \$0-delay;
#X obj 351 181 s \$0-warp;
#X obj 333 202 s \$0-swing;
#X obj 309 222 s \$0-beat-sync;
#X connect 1 0 18 0;
#X connect 13 0 0 0;
#X connect 13 1 14 0;
#X connect 14 0 0 0;
#X connect 14 1 15 0;
#X connect 18 0 2 0;
#X connect 18 1 8 0;
#X connect 18 2 3 0;
#X connect 18 3 4 0;
#X connect 18 4 5 0;
#X connect 18 5 6 0;
#X connect 18 6 7 0;
#X connect 18 7 10 0;
#X connect 18 8 9 0;
#X connect 18 9 16 0;
#X connect 18 10 17 0;
#X connect 18 11 24 0;
#X connect 18 12 23 0;
#X connect 18 13 22 0;
#X connect 18 14 21 0;
#X connect 18 15 20 0;
#X connect 18 16 19 0;
