#N canvas 778 597 397 300 10;
#X obj 56 36 inlet;
#X obj 56 256 outlet;
#X text 135 17 MIDI binary state convert;
#X obj 56 152 change;
#X obj 56 125 == 127;
#X connect 0 0 4 0;
#X connect 3 0 1 0;
#X connect 4 0 3 0;
