#N canvas 456 152 345 616 10;
#X obj 49 564 outlet;
#X obj 49 31 inlet;
#X obj 184 388 -;
#X obj 184 346 t f f;
#X obj 210 365 i;
#X obj 49 193 mod 2;
#X obj 184 327 spigot;
#X obj 49 213 t f f;
#X obj 49 495 f;
#X msg 216 304 0;
#X obj 49 130 i;
#X obj 49 151 change;
#X obj 49 109 t f f;
#X obj 49 172 t f f;
#X obj 49 235 sel 0 1;
#X obj 184 409 > 0;
#X obj 127 209 moses 0.1;
#X msg 127 230 0;
#X obj 127 357 == 0;
#X obj 184 430 change;
#X obj 184 451 sel 1;
#X obj 184 279 spigot;
#X obj 217 259 > 0;
#X obj 178 229 t f f f;
#X obj 127 31 inlet swing-amount;
#X obj 94 384 spigot 1;
#X connect 1 0 12 0;
#X connect 2 0 15 0;
#X connect 3 0 2 0;
#X connect 3 1 4 0;
#X connect 4 0 2 1;
#X connect 5 0 7 0;
#X connect 6 0 3 0;
#X connect 7 0 14 0;
#X connect 7 1 6 1;
#X connect 8 0 0 0;
#X connect 9 0 6 1;
#X connect 10 0 11 0;
#X connect 11 0 13 0;
#X connect 12 0 10 0;
#X connect 12 1 21 0;
#X connect 13 0 5 0;
#X connect 13 1 8 1;
#X connect 14 0 8 0;
#X connect 14 0 9 0;
#X connect 14 1 25 0;
#X connect 15 0 19 0;
#X connect 16 0 17 0;
#X connect 16 1 23 0;
#X connect 17 0 18 0;
#X connect 17 0 22 0;
#X connect 18 0 25 1;
#X connect 19 0 20 0;
#X connect 20 0 8 0;
#X connect 21 0 6 0;
#X connect 22 0 21 1;
#X connect 23 0 18 0;
#X connect 23 1 15 1;
#X connect 23 2 22 0;
#X connect 24 0 16 0;
#X connect 25 0 8 0;
