#N canvas 0 22 450 300 12;
#X obj 64 42 inlet~;
#N canvas 0 22 450 399 SIGNAL_SPLIT~ 0;
#X obj 35 10 inlet~;
#X obj 35 258 *~;
#X obj 100 258 *~;
#X obj 34 301 outlet~;
#X obj 100 300 outlet~;
#X obj 116 12 inlet pan;
#X obj 116 223 cos~;
#X obj 50 222 cos~;
#X text 143 128 <-- Range: 0-.25;
#X obj 116 130 f;
#X obj 116 105 * 0.25;
#X obj 116 201 +~ 0.75;
#X msg 116 151 \$1 10;
#X obj 116 173 vline~;
#X obj 126 41 loadbang;
#X obj 126 63 \$1;
#X obj 116 84 clip 0 1;
#X connect 0 0 1 0;
#X connect 0 0 2 0;
#X connect 1 0 3 0;
#X connect 2 0 4 0;
#X connect 5 0 16 0;
#X connect 6 0 2 1;
#X connect 7 0 1 1;
#X connect 9 0 12 0;
#X connect 10 0 9 0;
#X connect 11 0 6 0;
#X connect 12 0 13 0;
#X connect 13 0 11 0;
#X connect 13 0 7 0;
#X connect 14 0 15 0;
#X connect 15 0 16 0;
#X connect 16 0 10 0;
#X restore 64 111 pd SIGNAL_SPLIT~;
#X obj 173 41 inlet distortion-amount;
#X obj 64 233 outlet~;
#X obj 173 142 expr~ tan($v1);
#X connect 0 0 1 0;
#X connect 1 0 3 0;
#X connect 1 1 4 0;
#X connect 2 0 1 1;
#X connect 4 0 3 0;
