#N canvas 2 58 403 360 10;
#X obj 31 231 log;
#X obj 49 145 exp;
#X msg 49 123 1;
#X obj 49 167 - 1;
#X obj 49 102 loadbang;
#X obj 31 188 *;
#X obj 31 210 + 1;
#X obj 31 45 inlet;
#X obj 31 313 outlet;
#X text 41 11 logarithmic scaling for values between 0 and 1;
#X connect 0 0 8 0;
#X connect 1 0 3 0;
#X connect 2 0 1 0;
#X connect 3 0 5 1;
#X connect 4 0 2 0;
#X connect 5 0 6 0;
#X connect 6 0 0 0;
#X connect 7 0 5 0;
