#N canvas 251 160 726 476 10;
#X obj 101 117 cnv 15 260 235 empty empty empty 20 12 0 14 -233017
-66577 0;
#X text 345 2 OUTPUT MATRIX;
#X obj 140 147 vradio 25 1 0 8 empty empty empty 0 -8 0 10 -128992
-204786 -1 -1;
#X obj 527 30 inlet;
#X obj 50 32 inlet~;
#X text 147 131 1;
#X obj 527 102 unpack f f f f f f f f;
#X obj 36 405 outlet~;
#X obj 167 147 vradio 25 1 0 8 empty empty empty 0 -8 0 10 -128992
-204786 -1 -1;
#X obj 113 405 outlet~;
#X obj 194 147 vradio 25 1 0 8 empty empty empty 0 -8 0 10 -128992
-204786 -1 -1;
#X obj 188 405 outlet~;
#X obj 221 147 vradio 25 1 0 8 empty empty empty 0 -8 0 10 -128992
-204786 -1 -1;
#X obj 264 405 outlet~;
#X obj 248 147 vradio 25 1 0 8 empty empty empty 0 -8 0 10 -128992
-204786 -1 -1;
#X obj 338 405 outlet~;
#X obj 275 147 vradio 25 1 0 8 empty empty empty 0 -8 0 10 -128992
-204786 -1 -1;
#X obj 411 405 outlet~;
#X obj 302 147 vradio 25 1 0 8 empty empty empty 0 -8 0 10 -128992
-204786 -1 -1;
#X obj 484 405 outlet~;
#X obj 329 147 vradio 25 1 0 8 empty empty empty 0 -8 0 10 -128992
-204786 -1 -1;
#X obj 557 405 outlet~;
#X text 174 131 2;
#X text 201 131 3;
#X text 228 131 4;
#X text 255 131 5;
#X text 282 131 6;
#X text 309 131 7;
#X text 336 131 8;
#X obj 539 80 pack \$1 \$2 \$3 \$4 \$5 \$6 \$7 \$8;
#X obj 539 56 loadbang;
#X text 125 150 1;
#X text 125 175 2;
#X text 125 200 3;
#X text 125 225 4;
#X text 125 250 5;
#X text 125 275 6;
#X text 125 300 7;
#X text 125 325 8;
#X obj 527 194 - 1;
#X obj 548 174 - 1;
#X obj 570 151 - 1;
#X obj 591 128 - 1;
#X obj 613 194 - 1;
#X obj 634 174 - 1;
#X obj 656 151 - 1;
#X obj 678 126 - 1;
#N canvas 2 58 850 239 MAP~_ 0;
#X obj 36 169 throw~ \$0-1;
#X obj 36 144 *~;
#X obj 54 118 == 0;
#X obj 36 36 inlet~;
#X obj 738 34 inlet;
#X obj 133 144 *~;
#X obj 233 142 *~;
#X obj 330 142 *~;
#X obj 426 144 *~;
#X obj 523 144 *~;
#X obj 623 142 *~;
#X obj 720 142 *~;
#X obj 151 118 == 1;
#X obj 251 116 == 2;
#X obj 348 116 == 3;
#X obj 444 118 == 4;
#X obj 541 118 == 5;
#X obj 641 116 == 6;
#X obj 738 116 == 7;
#X obj 133 169 throw~ \$0-2;
#X obj 233 167 throw~ \$0-3;
#X obj 330 167 throw~ \$0-4;
#X obj 426 169 throw~ \$0-5;
#X obj 523 169 throw~ \$0-6;
#X obj 623 167 throw~ \$0-7;
#X obj 720 167 throw~ \$0-8;
#X connect 1 0 0 0;
#X connect 2 0 1 1;
#X connect 3 0 1 0;
#X connect 3 0 5 0;
#X connect 3 0 6 0;
#X connect 3 0 7 0;
#X connect 3 0 8 0;
#X connect 3 0 9 0;
#X connect 3 0 10 0;
#X connect 3 0 11 0;
#X connect 4 0 2 0;
#X connect 4 0 12 0;
#X connect 4 0 13 0;
#X connect 4 0 14 0;
#X connect 4 0 15 0;
#X connect 4 0 16 0;
#X connect 4 0 17 0;
#X connect 4 0 18 0;
#X connect 5 0 19 0;
#X connect 6 0 20 0;
#X connect 7 0 21 0;
#X connect 8 0 22 0;
#X connect 9 0 23 0;
#X connect 10 0 24 0;
#X connect 11 0 25 0;
#X connect 12 0 5 1;
#X connect 13 0 6 1;
#X connect 14 0 7 1;
#X connect 15 0 8 1;
#X connect 16 0 9 1;
#X connect 17 0 10 1;
#X connect 18 0 11 1;
#X restore 50 68 pd MAP~_;
#X obj 36 383 catch~ \$0-1;
#X obj 110 32 inlet~;
#N canvas 2 58 850 239 MAP~_ 0;
#X obj 36 169 throw~ \$0-1;
#X obj 36 144 *~;
#X obj 54 118 == 0;
#X obj 36 36 inlet~;
#X obj 738 34 inlet;
#X obj 133 144 *~;
#X obj 233 142 *~;
#X obj 330 142 *~;
#X obj 426 144 *~;
#X obj 523 144 *~;
#X obj 623 142 *~;
#X obj 720 142 *~;
#X obj 151 118 == 1;
#X obj 251 116 == 2;
#X obj 348 116 == 3;
#X obj 444 118 == 4;
#X obj 541 118 == 5;
#X obj 641 116 == 6;
#X obj 738 116 == 7;
#X obj 133 169 throw~ \$0-2;
#X obj 233 167 throw~ \$0-3;
#X obj 330 167 throw~ \$0-4;
#X obj 426 169 throw~ \$0-5;
#X obj 523 169 throw~ \$0-6;
#X obj 623 167 throw~ \$0-7;
#X obj 720 167 throw~ \$0-8;
#X connect 1 0 0 0;
#X connect 2 0 1 1;
#X connect 3 0 1 0;
#X connect 3 0 5 0;
#X connect 3 0 6 0;
#X connect 3 0 7 0;
#X connect 3 0 8 0;
#X connect 3 0 9 0;
#X connect 3 0 10 0;
#X connect 3 0 11 0;
#X connect 4 0 2 0;
#X connect 4 0 12 0;
#X connect 4 0 13 0;
#X connect 4 0 14 0;
#X connect 4 0 15 0;
#X connect 4 0 16 0;
#X connect 4 0 17 0;
#X connect 4 0 18 0;
#X connect 5 0 19 0;
#X connect 6 0 20 0;
#X connect 7 0 21 0;
#X connect 8 0 22 0;
#X connect 9 0 23 0;
#X connect 10 0 24 0;
#X connect 11 0 25 0;
#X connect 12 0 5 1;
#X connect 13 0 6 1;
#X connect 14 0 7 1;
#X connect 15 0 8 1;
#X connect 16 0 9 1;
#X connect 17 0 10 1;
#X connect 18 0 11 1;
#X restore 110 68 pd MAP~_;
#X obj 170 32 inlet~;
#N canvas 2 58 850 239 MAP~_ 0;
#X obj 36 169 throw~ \$0-1;
#X obj 36 144 *~;
#X obj 54 118 == 0;
#X obj 36 36 inlet~;
#X obj 738 34 inlet;
#X obj 133 144 *~;
#X obj 233 142 *~;
#X obj 330 142 *~;
#X obj 426 144 *~;
#X obj 523 144 *~;
#X obj 623 142 *~;
#X obj 720 142 *~;
#X obj 151 118 == 1;
#X obj 251 116 == 2;
#X obj 348 116 == 3;
#X obj 444 118 == 4;
#X obj 541 118 == 5;
#X obj 641 116 == 6;
#X obj 738 116 == 7;
#X obj 133 169 throw~ \$0-2;
#X obj 233 167 throw~ \$0-3;
#X obj 330 167 throw~ \$0-4;
#X obj 426 169 throw~ \$0-5;
#X obj 523 169 throw~ \$0-6;
#X obj 623 167 throw~ \$0-7;
#X obj 720 167 throw~ \$0-8;
#X connect 1 0 0 0;
#X connect 2 0 1 1;
#X connect 3 0 1 0;
#X connect 3 0 5 0;
#X connect 3 0 6 0;
#X connect 3 0 7 0;
#X connect 3 0 8 0;
#X connect 3 0 9 0;
#X connect 3 0 10 0;
#X connect 3 0 11 0;
#X connect 4 0 2 0;
#X connect 4 0 12 0;
#X connect 4 0 13 0;
#X connect 4 0 14 0;
#X connect 4 0 15 0;
#X connect 4 0 16 0;
#X connect 4 0 17 0;
#X connect 4 0 18 0;
#X connect 5 0 19 0;
#X connect 6 0 20 0;
#X connect 7 0 21 0;
#X connect 8 0 22 0;
#X connect 9 0 23 0;
#X connect 10 0 24 0;
#X connect 11 0 25 0;
#X connect 12 0 5 1;
#X connect 13 0 6 1;
#X connect 14 0 7 1;
#X connect 15 0 8 1;
#X connect 16 0 9 1;
#X connect 17 0 10 1;
#X connect 18 0 11 1;
#X restore 170 68 pd MAP~_;
#X obj 230 32 inlet~;
#N canvas 2 58 850 239 MAP~_ 0;
#X obj 36 169 throw~ \$0-1;
#X obj 36 144 *~;
#X obj 54 118 == 0;
#X obj 36 36 inlet~;
#X obj 738 34 inlet;
#X obj 133 144 *~;
#X obj 233 142 *~;
#X obj 330 142 *~;
#X obj 426 144 *~;
#X obj 523 144 *~;
#X obj 623 142 *~;
#X obj 720 142 *~;
#X obj 151 118 == 1;
#X obj 251 116 == 2;
#X obj 348 116 == 3;
#X obj 444 118 == 4;
#X obj 541 118 == 5;
#X obj 641 116 == 6;
#X obj 738 116 == 7;
#X obj 133 169 throw~ \$0-2;
#X obj 233 167 throw~ \$0-3;
#X obj 330 167 throw~ \$0-4;
#X obj 426 169 throw~ \$0-5;
#X obj 523 169 throw~ \$0-6;
#X obj 623 167 throw~ \$0-7;
#X obj 720 167 throw~ \$0-8;
#X connect 1 0 0 0;
#X connect 2 0 1 1;
#X connect 3 0 1 0;
#X connect 3 0 5 0;
#X connect 3 0 6 0;
#X connect 3 0 7 0;
#X connect 3 0 8 0;
#X connect 3 0 9 0;
#X connect 3 0 10 0;
#X connect 3 0 11 0;
#X connect 4 0 2 0;
#X connect 4 0 12 0;
#X connect 4 0 13 0;
#X connect 4 0 14 0;
#X connect 4 0 15 0;
#X connect 4 0 16 0;
#X connect 4 0 17 0;
#X connect 4 0 18 0;
#X connect 5 0 19 0;
#X connect 6 0 20 0;
#X connect 7 0 21 0;
#X connect 8 0 22 0;
#X connect 9 0 23 0;
#X connect 10 0 24 0;
#X connect 11 0 25 0;
#X connect 12 0 5 1;
#X connect 13 0 6 1;
#X connect 14 0 7 1;
#X connect 15 0 8 1;
#X connect 16 0 9 1;
#X connect 17 0 10 1;
#X connect 18 0 11 1;
#X restore 230 68 pd MAP~_;
#X obj 290 32 inlet~;
#N canvas 2 58 850 239 MAP~_ 0;
#X obj 36 169 throw~ \$0-1;
#X obj 36 144 *~;
#X obj 54 118 == 0;
#X obj 36 36 inlet~;
#X obj 738 34 inlet;
#X obj 133 144 *~;
#X obj 233 142 *~;
#X obj 330 142 *~;
#X obj 426 144 *~;
#X obj 523 144 *~;
#X obj 623 142 *~;
#X obj 720 142 *~;
#X obj 151 118 == 1;
#X obj 251 116 == 2;
#X obj 348 116 == 3;
#X obj 444 118 == 4;
#X obj 541 118 == 5;
#X obj 641 116 == 6;
#X obj 738 116 == 7;
#X obj 133 169 throw~ \$0-2;
#X obj 233 167 throw~ \$0-3;
#X obj 330 167 throw~ \$0-4;
#X obj 426 169 throw~ \$0-5;
#X obj 523 169 throw~ \$0-6;
#X obj 623 167 throw~ \$0-7;
#X obj 720 167 throw~ \$0-8;
#X connect 1 0 0 0;
#X connect 2 0 1 1;
#X connect 3 0 1 0;
#X connect 3 0 5 0;
#X connect 3 0 6 0;
#X connect 3 0 7 0;
#X connect 3 0 8 0;
#X connect 3 0 9 0;
#X connect 3 0 10 0;
#X connect 3 0 11 0;
#X connect 4 0 2 0;
#X connect 4 0 12 0;
#X connect 4 0 13 0;
#X connect 4 0 14 0;
#X connect 4 0 15 0;
#X connect 4 0 16 0;
#X connect 4 0 17 0;
#X connect 4 0 18 0;
#X connect 5 0 19 0;
#X connect 6 0 20 0;
#X connect 7 0 21 0;
#X connect 8 0 22 0;
#X connect 9 0 23 0;
#X connect 10 0 24 0;
#X connect 11 0 25 0;
#X connect 12 0 5 1;
#X connect 13 0 6 1;
#X connect 14 0 7 1;
#X connect 15 0 8 1;
#X connect 16 0 9 1;
#X connect 17 0 10 1;
#X connect 18 0 11 1;
#X restore 290 68 pd MAP~_;
#X obj 347 32 inlet~;
#N canvas 2 58 850 239 MAP~_ 0;
#X obj 36 169 throw~ \$0-1;
#X obj 36 144 *~;
#X obj 54 118 == 0;
#X obj 36 36 inlet~;
#X obj 738 34 inlet;
#X obj 133 144 *~;
#X obj 233 142 *~;
#X obj 330 142 *~;
#X obj 426 144 *~;
#X obj 523 144 *~;
#X obj 623 142 *~;
#X obj 720 142 *~;
#X obj 151 118 == 1;
#X obj 251 116 == 2;
#X obj 348 116 == 3;
#X obj 444 118 == 4;
#X obj 541 118 == 5;
#X obj 641 116 == 6;
#X obj 738 116 == 7;
#X obj 133 169 throw~ \$0-2;
#X obj 233 167 throw~ \$0-3;
#X obj 330 167 throw~ \$0-4;
#X obj 426 169 throw~ \$0-5;
#X obj 523 169 throw~ \$0-6;
#X obj 623 167 throw~ \$0-7;
#X obj 720 167 throw~ \$0-8;
#X connect 1 0 0 0;
#X connect 2 0 1 1;
#X connect 3 0 1 0;
#X connect 3 0 5 0;
#X connect 3 0 6 0;
#X connect 3 0 7 0;
#X connect 3 0 8 0;
#X connect 3 0 9 0;
#X connect 3 0 10 0;
#X connect 3 0 11 0;
#X connect 4 0 2 0;
#X connect 4 0 12 0;
#X connect 4 0 13 0;
#X connect 4 0 14 0;
#X connect 4 0 15 0;
#X connect 4 0 16 0;
#X connect 4 0 17 0;
#X connect 4 0 18 0;
#X connect 5 0 19 0;
#X connect 6 0 20 0;
#X connect 7 0 21 0;
#X connect 8 0 22 0;
#X connect 9 0 23 0;
#X connect 10 0 24 0;
#X connect 11 0 25 0;
#X connect 12 0 5 1;
#X connect 13 0 6 1;
#X connect 14 0 7 1;
#X connect 15 0 8 1;
#X connect 16 0 9 1;
#X connect 17 0 10 1;
#X connect 18 0 11 1;
#X restore 347 68 pd MAP~_;
#X obj 403 32 inlet~;
#N canvas 2 58 850 239 MAP~_ 0;
#X obj 36 169 throw~ \$0-1;
#X obj 36 144 *~;
#X obj 54 118 == 0;
#X obj 36 36 inlet~;
#X obj 738 34 inlet;
#X obj 133 144 *~;
#X obj 233 142 *~;
#X obj 330 142 *~;
#X obj 426 144 *~;
#X obj 523 144 *~;
#X obj 623 142 *~;
#X obj 720 142 *~;
#X obj 151 118 == 1;
#X obj 251 116 == 2;
#X obj 348 116 == 3;
#X obj 444 118 == 4;
#X obj 541 118 == 5;
#X obj 641 116 == 6;
#X obj 738 116 == 7;
#X obj 133 169 throw~ \$0-2;
#X obj 233 167 throw~ \$0-3;
#X obj 330 167 throw~ \$0-4;
#X obj 426 169 throw~ \$0-5;
#X obj 523 169 throw~ \$0-6;
#X obj 623 167 throw~ \$0-7;
#X obj 720 167 throw~ \$0-8;
#X connect 1 0 0 0;
#X connect 2 0 1 1;
#X connect 3 0 1 0;
#X connect 3 0 5 0;
#X connect 3 0 6 0;
#X connect 3 0 7 0;
#X connect 3 0 8 0;
#X connect 3 0 9 0;
#X connect 3 0 10 0;
#X connect 3 0 11 0;
#X connect 4 0 2 0;
#X connect 4 0 12 0;
#X connect 4 0 13 0;
#X connect 4 0 14 0;
#X connect 4 0 15 0;
#X connect 4 0 16 0;
#X connect 4 0 17 0;
#X connect 4 0 18 0;
#X connect 5 0 19 0;
#X connect 6 0 20 0;
#X connect 7 0 21 0;
#X connect 8 0 22 0;
#X connect 9 0 23 0;
#X connect 10 0 24 0;
#X connect 11 0 25 0;
#X connect 12 0 5 1;
#X connect 13 0 6 1;
#X connect 14 0 7 1;
#X connect 15 0 8 1;
#X connect 16 0 9 1;
#X connect 17 0 10 1;
#X connect 18 0 11 1;
#X restore 403 68 pd MAP~_;
#X obj 460 32 inlet~;
#N canvas 2 58 850 239 MAP~_ 0;
#X obj 36 169 throw~ \$0-1;
#X obj 36 144 *~;
#X obj 54 118 == 0;
#X obj 36 36 inlet~;
#X obj 738 34 inlet;
#X obj 133 144 *~;
#X obj 233 142 *~;
#X obj 330 142 *~;
#X obj 426 144 *~;
#X obj 523 144 *~;
#X obj 623 142 *~;
#X obj 720 142 *~;
#X obj 151 118 == 1;
#X obj 251 116 == 2;
#X obj 348 116 == 3;
#X obj 444 118 == 4;
#X obj 541 118 == 5;
#X obj 641 116 == 6;
#X obj 738 116 == 7;
#X obj 133 169 throw~ \$0-2;
#X obj 233 167 throw~ \$0-3;
#X obj 330 167 throw~ \$0-4;
#X obj 426 169 throw~ \$0-5;
#X obj 523 169 throw~ \$0-6;
#X obj 623 167 throw~ \$0-7;
#X obj 720 167 throw~ \$0-8;
#X connect 1 0 0 0;
#X connect 2 0 1 1;
#X connect 3 0 1 0;
#X connect 3 0 5 0;
#X connect 3 0 6 0;
#X connect 3 0 7 0;
#X connect 3 0 8 0;
#X connect 3 0 9 0;
#X connect 3 0 10 0;
#X connect 3 0 11 0;
#X connect 4 0 2 0;
#X connect 4 0 12 0;
#X connect 4 0 13 0;
#X connect 4 0 14 0;
#X connect 4 0 15 0;
#X connect 4 0 16 0;
#X connect 4 0 17 0;
#X connect 4 0 18 0;
#X connect 5 0 19 0;
#X connect 6 0 20 0;
#X connect 7 0 21 0;
#X connect 8 0 22 0;
#X connect 9 0 23 0;
#X connect 10 0 24 0;
#X connect 11 0 25 0;
#X connect 12 0 5 1;
#X connect 13 0 6 1;
#X connect 14 0 7 1;
#X connect 15 0 8 1;
#X connect 16 0 9 1;
#X connect 17 0 10 1;
#X connect 18 0 11 1;
#X restore 460 68 pd MAP~_;
#X obj 113 383 catch~ \$0-2;
#X obj 188 383 catch~ \$0-3;
#X obj 264 383 catch~ \$0-4;
#X obj 338 383 catch~ \$0-5;
#X obj 411 383 catch~ \$0-6;
#X obj 484 383 catch~ \$0-7;
#X obj 557 383 catch~ \$0-8;
#X text 101 149 OUT;
#X text 144 117 IN;
#X connect 2 0 47 1;
#X connect 3 0 6 0;
#X connect 4 0 47 0;
#X connect 6 0 39 0;
#X connect 6 1 40 0;
#X connect 6 2 41 0;
#X connect 6 3 42 0;
#X connect 6 4 43 0;
#X connect 6 5 44 0;
#X connect 6 6 45 0;
#X connect 6 7 46 0;
#X connect 8 0 50 1;
#X connect 10 0 52 1;
#X connect 12 0 54 1;
#X connect 14 0 56 1;
#X connect 16 0 58 1;
#X connect 18 0 60 1;
#X connect 20 0 62 1;
#X connect 29 0 6 0;
#X connect 30 0 29 0;
#X connect 39 0 2 0;
#X connect 40 0 8 0;
#X connect 41 0 10 0;
#X connect 42 0 12 0;
#X connect 43 0 14 0;
#X connect 44 0 16 0;
#X connect 45 0 18 0;
#X connect 46 0 20 0;
#X connect 48 0 7 0;
#X connect 49 0 50 0;
#X connect 51 0 52 0;
#X connect 53 0 54 0;
#X connect 55 0 56 0;
#X connect 57 0 58 0;
#X connect 59 0 60 0;
#X connect 61 0 62 0;
#X connect 63 0 9 0;
#X connect 64 0 11 0;
#X connect 65 0 13 0;
#X connect 66 0 15 0;
#X connect 67 0 17 0;
#X connect 68 0 19 0;
#X connect 69 0 21 0;
#X coords 0 -1 1 1 262 253 1 100 100;
