#N canvas 189 97 361 638 10;
#X obj 26 57 inlet~;
#X obj 124 58 inlet params;
#X obj 182 270 s \$0-panning;
#X obj 201 202 i;
#X obj 182 226 -;
#X obj 182 248 +;
#X obj 182 160 t f f f;
#X obj 26 99 s~ \$0-signal;
#X obj 124 105 route channels float;
#X obj 124 291 s \$0-total-channels;
#X obj 182 138 * \$1;
#X obj 221 183 mod \$1;
#X text 142 82 \$1 = number of channels (integer);
#X text 52 8 spat~ /// upto 16 channel circular panner;
#N canvas 2 118 377 417 PAN_LOGIC_CHANNEL_1_____________________ 0
;
#X msg 50 304 0;
#X msg 83 305 1;
#X obj 50 336 t a;
#X obj 146 283 r \$0-pan-curve;
#X obj 50 282 sel 0 1;
#X obj 50 43 r \$0-panning;
#X obj 50 214 clip 0 1;
#X msg 50 236 1 \$1;
#X obj 50 258 -;
#X obj 82 171 abs;
#X msg 82 193 1 \$1;
#X obj 50 358 s \$0-pan-1;
#X obj 82 107 - 1;
#X obj 82 149 - \$2;
#X obj 50 128 moses;
#X obj 114 306 pow 1;
#X obj 82 63 r \$0-total-channels;
#X obj 107 128 r \$0-total-channels;
#X obj 82 85 \$1;
#X connect 0 0 2 0;
#X connect 1 0 2 0;
#X connect 2 0 11 0;
#X connect 3 0 15 1;
#X connect 4 0 0 0;
#X connect 4 1 1 0;
#X connect 4 2 15 0;
#X connect 5 0 14 0;
#X connect 6 0 7 0;
#X connect 7 0 8 0;
#X connect 8 0 4 0;
#X connect 9 0 10 0;
#X connect 10 0 8 0;
#X connect 12 0 14 1;
#X connect 13 0 9 0;
#X connect 14 0 6 0;
#X connect 14 1 13 0;
#X connect 15 0 2 0;
#X connect 16 0 18 0;
#X connect 17 0 13 1;
#X connect 18 0 12 0;
#X restore 22 356 pd PAN_LOGIC_CHANNEL_1_____________________;
#N canvas 930 227 310 350 PAN_LOGIC_CHANNELS_2_16_________________
0;
#X obj 70 30 flib.spat.panlogic 1030 2;
#X obj 70 50 flib.spat.panlogic 1030 3;
#X obj 70 70 flib.spat.panlogic 1030 4;
#X obj 70 90 flib.spat.panlogic 1030 5;
#X obj 70 110 flib.spat.panlogic 1030 6;
#X obj 70 130 flib.spat.panlogic 1030 7;
#X obj 70 150 flib.spat.panlogic 1030 8;
#X obj 70 170 flib.spat.panlogic 1030 9;
#X obj 70 190 flib.spat.panlogic 1030 10;
#X obj 70 210 flib.spat.panlogic 1030 11;
#X obj 70 230 flib.spat.panlogic 1030 12;
#X obj 70 250 flib.spat.panlogic 1030 13;
#X obj 70 270 flib.spat.panlogic 1030 14;
#X obj 70 290 flib.spat.panlogic 1030 15;
#X obj 70 310 flib.spat.panlogic 1030 16;
#X restore 22 377 pd PAN_LOGIC_CHANNELS_2_16_________________;
#N canvas 543 189 323 369 CHANNELS________________________________
0;
#X obj 10 20 flib.spat.spatchannel~ 1030 1;
#X obj 10 40 flib.spat.spatchannel~ 1030 2;
#X obj 10 60 flib.spat.spatchannel~ 1030 3;
#X obj 10 80 flib.spat.spatchannel~ 1030 4;
#X obj 10 100 flib.spat.spatchannel~ 1030 5;
#X obj 10 120 flib.spat.spatchannel~ 1030 6;
#X obj 10 140 flib.spat.spatchannel~ 1030 7;
#X obj 10 160 flib.spat.spatchannel~ 1030 8;
#X obj 10 180 flib.spat.spatchannel~ 1030 9;
#X obj 10 200 flib.spat.spatchannel~ 1030 10;
#X obj 10 220 flib.spat.spatchannel~ 1030 11;
#X obj 10 240 flib.spat.spatchannel~ 1030 12;
#X obj 10 260 flib.spat.spatchannel~ 1030 13;
#X obj 10 280 flib.spat.spatchannel~ 1030 14;
#X obj 10 300 flib.spat.spatchannel~ 1030 15;
#X obj 10 320 flib.spat.spatchannel~ 1030 16;
#X restore 22 398 pd CHANNELS________________________________;
#N canvas 0 22 1323 100 AUDIO_OUT_______________________________ 0
;
#X obj 25 27 catch~ \$0-1;
#X obj 25 48 outlet~;
#X obj 105 48 outlet~;
#X obj 185 48 outlet~;
#X obj 265 48 outlet~;
#X obj 345 48 outlet~;
#X obj 425 48 outlet~;
#X obj 1229 48 outlet~;
#X obj 505 48 outlet~;
#X obj 585 48 outlet~;
#X obj 665 48 outlet~;
#X obj 745 48 outlet~;
#X obj 825 48 outlet~;
#X obj 905 48 outlet~;
#X obj 985 48 outlet~;
#X obj 1065 48 outlet~;
#X obj 1145 48 outlet~;
#X obj 105 27 catch~ \$0-2;
#X obj 185 27 catch~ \$0-3;
#X obj 265 27 catch~ \$0-4;
#X obj 345 27 catch~ \$0-5;
#X obj 425 27 catch~ \$0-6;
#X obj 505 27 catch~ \$0-7;
#X obj 585 27 catch~ \$0-8;
#X obj 665 27 catch~ \$0-9;
#X obj 745 27 catch~ \$0-10;
#X obj 825 26 catch~ \$0-11;
#X obj 905 27 catch~ \$0-12;
#X obj 985 27 catch~ \$0-13;
#X obj 1065 27 catch~ \$0-14;
#X obj 1145 26 catch~ \$0-15;
#X obj 1229 26 catch~ \$0-16;
#X connect 0 0 1 0;
#X connect 17 0 2 0;
#X connect 18 0 3 0;
#X connect 19 0 4 0;
#X connect 20 0 5 0;
#X connect 21 0 6 0;
#X connect 22 0 8 0;
#X connect 23 0 9 0;
#X connect 24 0 10 0;
#X connect 25 0 11 0;
#X connect 26 0 12 0;
#X connect 27 0 13 0;
#X connect 28 0 14 0;
#X connect 29 0 15 0;
#X connect 30 0 16 0;
#X connect 31 0 7 0;
#X restore 22 419 pd AUDIO_OUT_______________________________;
#N canvas 2 63 450 300 CHANNEL_EDITOR__________________________ 0;
#N canvas 1 103 597 473 channel_creator 0;
#X obj 44 149 \$2;
#X obj 44 171 t f b b;
#X obj 44 213 until;
#X obj 44 235 i;
#X obj 44 257 + 1;
#X msg 67 193 0;
#X msg 107 192 clear;
#X msg 97 150 2;
#X obj 44 279 t f f;
#X obj 44 301 * 20;
#X text 109 274 \$1(position) \, \$3 (\$0) \, \$4(send names) \, \$2(channel
number);
#X obj 44 35 inlet;
#X obj 132 294 symbol \$1;
#X obj 44 323 pack f f \$0 s;
#X msg 44 355 obj 10 \$1 flib.spat.spatchannel~ \$3 \$2;
#X obj 44 377 s pd-\$0-CHANNELS________________________________;
#X connect 0 0 1 0;
#X connect 1 0 2 0;
#X connect 1 1 5 0;
#X connect 1 2 6 0;
#X connect 1 2 12 0;
#X connect 2 0 3 0;
#X connect 3 0 4 0;
#X connect 4 0 3 1;
#X connect 4 0 8 0;
#X connect 5 0 3 1;
#X connect 6 0 15 0;
#X connect 7 0 1 0;
#X connect 8 0 9 0;
#X connect 8 1 13 1;
#X connect 9 0 13 0;
#X connect 11 0 0 0;
#X connect 12 0 13 3;
#X connect 13 0 14 0;
#X connect 14 0 15 0;
#X restore 18 183 pd channel_creator;
#N canvas 560 187 575 472 pan_creator 0;
#X obj 44 171 t f b b;
#X obj 44 213 until;
#X obj 44 235 i;
#X obj 44 257 + 1;
#X msg 67 193 0;
#X msg 107 192 clear;
#X obj 44 331 * 20;
#X text 109 304 \$1(position) \, \$3 (\$0) \, \$4(send names) \, \$2(channel
number);
#X obj 44 35 inlet;
#X obj 44 141 - 1;
#X obj 44 279 + 1;
#X obj 44 353 pack f f \$0;
#X obj 44 309 t f f;
#X msg 44 385 obj 100 \$1 flib.spat.panlogic \$3 \$2;
#X obj 44 407 s pd-\$0-PAN_LOGIC_CHANNELS_2_16_________________;
#X connect 0 0 1 0;
#X connect 0 1 4 0;
#X connect 0 2 5 0;
#X connect 1 0 2 0;
#X connect 2 0 3 0;
#X connect 3 0 2 1;
#X connect 3 0 10 0;
#X connect 4 0 2 1;
#X connect 5 0 14 0;
#X connect 6 0 11 0;
#X connect 8 0 9 0;
#X connect 9 0 0 0;
#X connect 10 0 12 0;
#X connect 11 0 13 0;
#X connect 12 0 6 0;
#X connect 12 1 11 1;
#X connect 13 0 14 0;
#X restore 120 121 pd pan_creator;
#X obj 257 71 s \$0-channels;
#X obj 120 100 r \$0-channels;
#X obj 18 162 r \$0-channels;
#X msg 257 48 16;
#X connect 3 0 1 0;
#X connect 4 0 0 0;
#X connect 5 0 2 0;
#X restore 22 320 pd CHANNEL_EDITOR__________________________;
#X obj 22 600 outlet~;
#X obj 39 580 outlet~;
#X obj 56 560 outlet~;
#X obj 73 540 outlet~;
#X obj 90 520 outlet~;
#X obj 107 500 outlet~;
#X obj 124 480 outlet~;
#X obj 141 460 outlet~;
#X obj 158 600 outlet~;
#X obj 175 580 outlet~;
#X obj 192 560 outlet~;
#X obj 209 540 outlet~;
#X obj 226 520 outlet~;
#X obj 243 500 outlet~;
#X obj 260 480 outlet~;
#X obj 277 460 outlet~;
#X connect 0 0 7 0;
#X connect 1 0 8 0;
#X connect 3 0 4 1;
#X connect 4 0 5 0;
#X connect 5 0 2 0;
#X connect 6 0 4 0;
#X connect 6 1 3 0;
#X connect 6 2 11 0;
#X connect 8 0 9 0;
#X connect 8 0 10 1;
#X connect 8 0 11 1;
#X connect 8 1 10 0;
#X connect 10 0 6 0;
#X connect 11 0 5 1;
#X connect 17 0 19 0;
#X connect 17 1 20 0;
#X connect 17 2 21 0;
#X connect 17 3 22 0;
#X connect 17 4 23 0;
#X connect 17 5 24 0;
#X connect 17 6 25 0;
#X connect 17 7 26 0;
#X connect 17 8 27 0;
#X connect 17 9 28 0;
#X connect 17 10 29 0;
#X connect 17 11 30 0;
#X connect 17 12 31 0;
#X connect 17 13 32 0;
#X connect 17 14 33 0;
#X connect 17 15 34 0;
