#N canvas 498 338 941 485 10;
#X obj 31 8 inlet;
#X obj 31 467 outlet;
#X obj 60 176 sel 0;
#X obj 60 222 == -1;
#X obj 60 133 loadbang;
#X obj 80 361 +;
#X obj 49 361 i;
#X obj 77 325 t b f;
#X obj 87 302 r \$0-out;
#X obj 31 30 t f b;
#X msg 63 52 0;
#X obj 63 74 s \$0-clear;
#X obj 126 326 r \$0-clear;
#X obj 150 176 sel 0;
#X obj 150 222 == -1;
#X obj 150 133 loadbang;
#X obj 150 244 s \$0-out;
#X obj 240 176 sel 0;
#X obj 240 222 == -1;
#X obj 240 133 loadbang;
#X obj 240 244 s \$0-out;
#X obj 330 176 sel 0;
#X obj 330 222 == -1;
#X obj 330 133 loadbang;
#X obj 330 244 s \$0-out;
#X obj 410 176 sel 0;
#X obj 410 222 == -1;
#X obj 410 133 loadbang;
#X obj 410 244 s \$0-out;
#X obj 500 176 sel 0;
#X obj 500 222 == -1;
#X obj 500 133 loadbang;
#X obj 500 244 s \$0-out;
#X obj 590 176 sel 0;
#X obj 590 222 == -1;
#X obj 590 133 loadbang;
#X obj 590 244 s \$0-out;
#X obj 680 176 sel 0;
#X obj 680 222 == -1;
#X obj 680 133 loadbang;
#X obj 680 244 s \$0-out;
#X obj 760 176 sel 0;
#X obj 760 222 == -1;
#X obj 760 133 loadbang;
#X obj 760 244 s \$0-out;
#X obj 850 176 sel 0;
#X obj 850 222 == -1;
#X obj 850 133 loadbang;
#X obj 850 244 s \$0-out;
#X obj 31 96 t b f f f f f f f f f f;
#X obj 150 154 \$2;
#X obj 240 154 \$3;
#X obj 330 154 \$4;
#X obj 410 154 \$5;
#X obj 500 154 \$6;
#X obj 590 154 \$7;
#X obj 680 154 \$8;
#X obj 760 154 \$9;
#X obj 850 154 \$10;
#X obj 31 390 i;
#X obj 60 154 \$1;
#X obj 31 255 t b b f;
#X obj 31 415 change;
#X connect 0 0 9 0;
#X connect 2 1 3 1;
#X connect 3 0 61 0;
#X connect 4 0 60 0;
#X connect 5 0 6 1;
#X connect 6 0 5 0;
#X connect 6 0 59 1;
#X connect 7 0 6 0;
#X connect 7 1 5 1;
#X connect 8 0 7 0;
#X connect 9 0 49 0;
#X connect 9 1 10 0;
#X connect 10 0 11 0;
#X connect 12 0 5 1;
#X connect 12 0 6 1;
#X connect 13 1 14 1;
#X connect 14 0 16 0;
#X connect 15 0 50 0;
#X connect 17 1 18 1;
#X connect 18 0 20 0;
#X connect 19 0 51 0;
#X connect 21 1 22 1;
#X connect 22 0 24 0;
#X connect 23 0 52 0;
#X connect 25 1 26 1;
#X connect 26 0 28 0;
#X connect 27 0 53 0;
#X connect 29 1 30 1;
#X connect 30 0 32 0;
#X connect 31 0 54 0;
#X connect 33 1 34 1;
#X connect 34 0 36 0;
#X connect 35 0 55 0;
#X connect 37 1 38 1;
#X connect 38 0 40 0;
#X connect 39 0 56 0;
#X connect 41 1 42 1;
#X connect 42 0 44 0;
#X connect 43 0 57 0;
#X connect 45 1 46 1;
#X connect 46 0 48 0;
#X connect 47 0 58 0;
#X connect 49 1 3 0;
#X connect 49 2 14 0;
#X connect 49 3 18 0;
#X connect 49 4 22 0;
#X connect 49 5 26 0;
#X connect 49 6 30 0;
#X connect 49 7 34 0;
#X connect 49 8 38 0;
#X connect 49 9 42 0;
#X connect 49 10 46 0;
#X connect 50 0 13 0;
#X connect 51 0 17 0;
#X connect 52 0 21 0;
#X connect 53 0 25 0;
#X connect 54 0 29 0;
#X connect 55 0 33 0;
#X connect 56 0 37 0;
#X connect 57 0 41 0;
#X connect 58 0 45 0;
#X connect 59 0 62 0;
#X connect 60 0 2 0;
#X connect 61 0 59 0;
#X connect 61 1 6 0;
#X connect 61 2 7 0;
#X connect 62 0 1 0;
