#N canvas 92 117 529 418 12;
#X obj 105 118 hsl 128 30 0 1 0 0 empty empty OUT\ LEVEL 15 15 0 15
#dfdfdf #000000 #0400ff 0 1;
#X obj 256 314 dac~ 1;
#X obj 313 313 dac~ 2;
#X obj 366 192 loadbang;
#X obj 366 216 \$1;
#X obj 366 240 sel 0;
#X obj 415 241 sel 0;
#X obj 415 217 \$2;
#X obj 256 85 inlet~;
#X obj 256 260 *~;
#X obj 272 171 sig~;
#X obj 272 195 lop~ 100;
#X obj 274 223 *~;
#X obj 313 85 inlet~;
#X obj 313 262 *~;
#X msg 355 266 set \$1;
#X msg 415 266 set \$1;
#X text 222 15 output~;
#X connect 0 0 10 0;
#X connect 3 0 4 0;
#X connect 3 0 7 0;
#X connect 4 0 5 0;
#X connect 5 1 15 0;
#X connect 6 1 16 0;
#X connect 7 0 6 0;
#X connect 8 0 9 0;
#X connect 9 0 1 0;
#X connect 10 0 11 0;
#X connect 11 0 12 0;
#X connect 11 0 12 1;
#X connect 12 0 9 1;
#X connect 12 0 14 1;
#X connect 13 0 14 0;
#X connect 14 0 2 0;
#X connect 15 0 1 0;
#X connect 16 0 2 0;
#X coords 0 -1 1 1 137 50 1 100 100;
