#N canvas 99 318 384 401 10;
#X obj 101 119 cnv 15 183 80 empty empty empty 20 12 0 14 -233017 -66577
0;
#X obj 109 120 hsl 128 15 1 10000 1 0 empty empty ATTACK_(1-10000ms)
3 8 0 10 -262144 -1 -1 3900 1;
#X obj 109 140 hsl 128 15 1 10000 1 0 empty empty DECAY_(1-10000ms)
3 8 0 10 -262144 -1 -1 7100 1;
#X obj 109 160 hsl 128 15 0 1 0 0 empty empty SUSTAIN_(0-1) 3 8 0 10
-262144 -1 -1 6700 1;
#X obj 109 180 hsl 128 15 1 10000 1 0 empty empty RELEASE_(1-10000ms)
3 8 0 10 -262144 -1 -1 9700 1;
#X obj 296 98 i;
#X floatatom 246 122 5 0 0 0 - - -;
#X obj 296 120 i;
#X floatatom 246 142 5 0 0 0 - - -;
#X floatatom 246 162 5 0 0 0 - - -;
#X obj 296 160 i;
#X floatatom 246 182 5 0 0 0 - - -;
#X obj 27 294 pack f f f f;
#X obj 49 256 t b f;
#X obj 73 233 t b f;
#X obj 105 208 t b f;
#X obj 27 356 outlet;
#X obj 33 49 loadbang;
#X msg 33 71 1;
#X obj 295 140 pow 2;
#X connect 1 0 5 0;
#X connect 1 0 12 0;
#X connect 2 0 7 0;
#X connect 2 0 13 0;
#X connect 3 0 14 0;
#X connect 3 0 19 0;
#X connect 4 0 10 0;
#X connect 4 0 15 0;
#X connect 5 0 6 0;
#X connect 7 0 8 0;
#X connect 10 0 11 0;
#X connect 12 0 16 0;
#X connect 13 0 12 0;
#X connect 13 1 12 1;
#X connect 14 0 12 0;
#X connect 14 1 12 2;
#X connect 15 0 12 0;
#X connect 15 1 12 3;
#X connect 17 0 18 0;
#X connect 18 0 1 0;
#X connect 18 0 2 0;
#X connect 18 0 3 0;
#X connect 18 0 4 0;
#X connect 19 0 9 0;
#X coords 0 -1 1 1 185 100 1 100 100;
