#N canvas 222 195 407 508 10;
#X obj 101 101 cnv 15 220 248 empty empty empty 20 12 0 14 -233017
-66577 0;
#N canvas 1034 23 406 470 interface 0;
#X obj 100 100 grid grid1 200 -180 180 200 -180 180 1 0.01 0.01 10
10 4 446;
#X obj 55 371 pack f f;
#X obj 55 394 outlet;
#X obj 55 349 f;
#X obj 105 29 inlet;
#X msg 91 58 goto \$1 \$2;
#X connect 0 0 1 1;
#X connect 0 1 3 0;
#X connect 1 0 2 0;
#X connect 3 0 1 0;
#X connect 4 0 5 0;
#X connect 5 0 0 0;
#X coords 0 -1 1 1 200 200 1 100 100;
#X restore 111 138 pd interface;
#X obj 113 106 cnv 15 196 20 empty empty AMBIX_XY_PANNER 30 10 0 14
-16662 -262144 0;
#X text 90 10 ambixxy /// XY panner for ambix interface;
#X text 131 54 centre coordinate = 0 \, 0;
#X text 131 82 top right coordinate = 180 \, 180;
#X text 131 68 bottom left coordinate = -180 \, -180;
#X obj 112 433 outlet;
#X obj 111 34 inlet;
#X connect 1 0 7 0;
#X connect 8 0 1 0;
#X coords 0 -1 1 1 222 250 1 100 100;
