#N canvas 1325 470 341 292 10;
#X obj 99 60 list split 1;
#X obj 53 10 inlet;
#X obj 53 241 outlet;
#X obj 99 155 list append;
#X obj 99 117 f;
#X obj 99 177 list trim;
#X obj 53 35 route float;
#X obj 99 95 s2l;
#X connect 0 0 7 0;
#X connect 0 1 3 1;
#X connect 1 0 6 0;
#X connect 3 0 5 0;
#X connect 4 0 3 0;
#X connect 5 0 2 0;
#X connect 6 0 2 0;
#X connect 6 1 0 0;
#X connect 7 0 4 0;
