#N canvas 2 83 630 576 10;
#X obj 121 412 phasor~;
#X obj 121 463 cos~;
#X obj 167 463 cos~;
#X obj 56 108 inlet~;
#X obj 102 496 *~;
#X obj 58 546 outlet~;
#X obj 58 494 *~;
#X obj 167 443 +~ 0.25;
#X obj 276 222 osc~;
#X obj 276 290 *~;
#X obj 121 386 *~;
#X obj 276 199 lop~ 64;
#X obj 276 335 +~;
#X obj 291 245 sig~ 0;
#X obj 291 267 lop~ 64;
#X obj 57 412 hilbert~;
#X obj 451 249 -;
#X msg 451 227 1 \$1;
#X obj 451 294 lop~ 64;
#X obj 451 204 clip 0 1;
#X text 54 6 FREQUENCY SHIFTER WITH WARBLE EFFECT;
#X obj 451 272 sig~ 1;
#X obj 121 362 sig~ \$1;
#X obj 458 161 loadbang;
#X text 53 31 \$1 = frequency shift (Hz) \; \$2 = warble rate (Hz)
\; \$3 = warble amount (0-1);
#N canvas 751 110 503 525 LICENCE 0;
#X text 63 55 Attribution 4 International (CC BY 4.0) This is a human-readable
summary of (and not a substitute for) the license. Disclaimer This
license is acceptable for Free Cultural Works.;
#X text 63 131 You are free to: Share - copy and redistribute the material
in any medium or format.;
#X text 63 181 Adapt - remix \, transform \, and build upon the material
for any purpose \, even commercially.;
#X text 63 231 The licensor cannot revoke these freedoms as long as
you follow the license terms. Under the following terms:;
#X text 63 281 Attribution - You must give appropriate credit \, provide
a link to the license \, and indicate if changes were made. You may
do so in any reasonable manner \, but not in any way that suggests
the licensor endorses you or your use.;
#X text 63 357 No additional restrictions - You may not apply legal
terms or technological measures that legally restrict others from doing
anything the license permits.;
#X text 63 420 Notices: You do not have to comply with the license
for elements of the material in the public domain or where your use
is permitted by an applicable exception or limitation. No warranties
are given. The license may not give you all of the permissions necessary
for your intended use. For example \, other rights such as publicity
\, privacy \, or moral rights may limit how you use the material.;
#X text 64 19 J.R.Dooley \, 2013;
#X restore 402 58 pd LICENCE;
#X obj 121 108 inlet frequencyShift_Hz;
#X obj 276 108 inlet moduationFrequency_Hz;
#X obj 276 154 clip 0 22050;
#X obj 451 108 inlet modulationAmount_0-1;
#X obj 276 177 sig~ \$2;
#X obj 458 183 \$3;
#X connect 0 0 1 0;
#X connect 0 0 7 0;
#X connect 1 0 6 1;
#X connect 2 0 4 1;
#X connect 3 0 15 0;
#X connect 4 0 5 0;
#X connect 6 0 5 0;
#X connect 7 0 2 0;
#X connect 8 0 9 0;
#X connect 9 0 12 0;
#X connect 10 0 0 0;
#X connect 11 0 8 0;
#X connect 12 0 10 1;
#X connect 13 0 14 0;
#X connect 14 0 9 1;
#X connect 15 0 6 0;
#X connect 15 1 4 0;
#X connect 16 0 21 0;
#X connect 17 0 16 0;
#X connect 18 0 12 1;
#X connect 19 0 13 0;
#X connect 19 0 17 0;
#X connect 21 0 18 0;
#X connect 22 0 10 0;
#X connect 23 0 31 0;
#X connect 26 0 22 0;
#X connect 27 0 28 0;
#X connect 28 0 30 0;
#X connect 29 0 19 0;
#X connect 30 0 11 0;
#X connect 31 0 19 0;
