#N canvas 1389 392 364 559 10;
#X obj 76 189 loadbang;
#X obj 51 264 clip;
#X obj 51 309 moses 1;
#X msg 97 354 1 \$1;
#X obj 97 376 -;
#X obj 97 332 - 1;
#X obj 51 398 f;
#X msg 51 453 0;
#X msg 84 454 1;
#X obj 51 485 t a;
#X obj 51 431 sel 0 1;
#X obj 51 286 -;
#X obj 69 237 - 2;
#X obj 115 455 pow 1;
#X text 170 26 \$1 = \$0;
#X text 170 46 \$2 = channel number;
#X obj 51 27 r \$1-panning;
#X obj 147 432 r \$1-pan-curve;
#X obj 51 162 spigot;
#X obj 51 507 s \$1-pan-\$2;
#X obj 90 115 \$2;
#X obj 90 139 <=;
#X floatatom 110 161 5 0 0 0 - - -, f 5;
#X obj 90 93 t b f;
#X obj 76 213 \$2;
#X obj 90 71 r \$1-total-channels;
#X connect 0 0 24 0;
#X connect 1 0 11 0;
#X connect 2 0 6 0;
#X connect 2 1 5 0;
#X connect 3 0 4 0;
#X connect 4 0 6 0;
#X connect 5 0 3 0;
#X connect 6 0 10 0;
#X connect 7 0 9 0;
#X connect 8 0 9 0;
#X connect 9 0 19 0;
#X connect 10 0 7 0;
#X connect 10 1 8 0;
#X connect 10 2 13 0;
#X connect 11 0 2 0;
#X connect 12 0 1 1;
#X connect 12 0 11 1;
#X connect 13 0 9 0;
#X connect 16 0 18 0;
#X connect 17 0 13 1;
#X connect 18 0 1 0;
#X connect 20 0 21 0;
#X connect 21 0 18 1;
#X connect 21 0 22 0;
#X connect 23 0 20 0;
#X connect 23 1 21 1;
#X connect 24 0 12 0;
#X connect 24 0 1 2;
#X connect 25 0 23 0;
