#N canvas 1 63 619 314 10;
#X obj 28 30 inlet~;
#X obj 28 259 outlet~;
#X obj 412 157 samplerate~;
#X obj 283 33 inlet;
#X obj 283 127 t f b;
#X text 28 9 sig.in~;
#X text 29 279 sig.out~;
#X obj 283 181 expr exp(-1/($f1*$f2));
#X text 73 110 rectify;
#X obj 28 109 abs~;
#X text 425 181 calculate decay coefficient;
#X obj 283 85 \$1;
#X obj 296 59 loadbang;
#X obj 28 226 fexpr~ if($x1 >= $y1[-1] \, $x1 \, $y1[-1]*$f2);
#X text 285 15 decay time in ms;
#X obj 283 106 * 1000;
#X connect 0 0 9 0;
#X connect 2 0 7 1;
#X connect 3 0 11 0;
#X connect 4 0 7 0;
#X connect 4 1 2 0;
#X connect 7 0 13 1;
#X connect 9 0 13 0;
#X connect 11 0 15 0;
#X connect 12 0 11 0;
#X connect 13 0 1 0;
#X connect 15 0 4 0;
