#N canvas 1034 153 406 690 10;
#X obj 34 235 /;
#X obj 34 15 inlet;
#X text 158 94 f.metronome;
#X obj 34 77 route float bang;
#X obj 44 144 sel 0;
#X obj 44 100 loadbang;
#X msg 44 166 120;
#X obj 44 188 f;
#X text 157 156 float = set tempo \; bang = reset beat counter;
#X obj 33 388 tgl 15 0 empty empty empty 17 7 0 10 -262144 -1 -1 0
1;
#X obj 33 317 r pd;
#X obj 33 339 route dsp;
#X msg 34 212 60000 \$1;
#X obj 88 281 t b b b;
#X msg 134 346 0;
#X obj 33 365 f;
#N canvas 427 348 310 451 GLOBAL_BEATS 0;
#X text 195 38 <- whole beats;
#X obj 32 37 flib.time.beatdiv \$0 16;
#X obj 32 57 flib.time.beatdiv \$0 15;
#X obj 32 77 flib.time.beatdiv \$0 14;
#X obj 32 97 flib.time.beatdiv \$0 13;
#X obj 32 137 flib.time.beatdiv \$0 12;
#X obj 32 157 flib.time.beatdiv \$0 11;
#X obj 32 177 flib.time.beatdiv \$0 10;
#X obj 32 197 flib.time.beatdiv \$0 9;
#X obj 32 227 flib.time.beatdiv \$0 8;
#X obj 32 247 flib.time.beatdiv \$0 7;
#X obj 32 267 flib.time.beatdiv \$0 6;
#X obj 32 287 flib.time.beatdiv \$0 5;
#X obj 32 327 flib.time.beatdiv \$0 4;
#X obj 32 347 flib.time.beatdiv \$0 3;
#X obj 32 367 flib.time.beatdiv \$0 2;
#X obj 32 387 flib.time.beatdiv \$0 1;
#X restore 142 581 pd GLOBAL_BEATS;
#X obj 34 257 s \$0-metro-time;
#X obj 142 607 r \$0-global-beat;
#X obj 33 655 outlet ON_OFF;
#X obj 142 655 outlet BEAT;
#X msg 111 303 0;
#X obj 111 325 s \$0-reset;
#X obj 44 122 \$1;
#X text 158 129 \$1 = initial tempo;
#X obj 142 629 list trim;
#X obj 58 474 metro;
#X obj 90 410 r \$0-metro-time;
#X obj 90 454 /;
#X msg 90 432 \$1 16;
#X obj 58 540 s \$0-metro-in;
#X obj 58 496 i;
#X obj 58 518 + 1;
#X connect 0 0 17 0;
#X connect 1 0 3 0;
#X connect 3 0 12 0;
#X connect 3 1 13 0;
#X connect 4 0 6 0;
#X connect 4 1 7 0;
#X connect 5 0 23 0;
#X connect 6 0 7 0;
#X connect 7 0 12 0;
#X connect 9 0 26 0;
#X connect 9 0 19 0;
#X connect 10 0 11 0;
#X connect 11 0 15 0;
#X connect 12 0 0 0;
#X connect 13 0 15 0;
#X connect 13 1 21 0;
#X connect 13 2 14 0;
#X connect 14 0 9 0;
#X connect 15 0 9 0;
#X connect 18 0 25 0;
#X connect 21 0 22 0;
#X connect 23 0 4 0;
#X connect 25 0 20 0;
#X connect 26 0 31 0;
#X connect 27 0 29 0;
#X connect 28 0 26 1;
#X connect 29 0 28 0;
#X connect 31 0 32 0;
#X connect 32 0 31 1;
#X connect 32 0 30 0;
