#N canvas 534 0 766 861 10;
#X text 411 33 solo = mutes other tracks;
#X obj 35 158 ctlin;
#X obj 35 259 s \$0-ctl-out;
#X obj 104 180 i 1;
#X obj 209 128 pack f f;
#X obj 209 150 route 25 26;
#X obj 209 490 sel 127;
#X msg 209 512 25 127 \, 26 0;
#X obj 209 534 s \$0-bank;
#X obj 246 423 sel 127;
#X obj 246 467 s \$0-bank;
#X obj 208 559 r \$0-bank;
#X obj 208 603 unpack f f;
#X msg 246 445 26 127 \, 25 0;
#X obj 104 135 sel 25 26;
#X msg 104 157 1;
#X msg 136 157 2;
#X msg 283 174 \$2 \$1;
#X obj 283 196 route 127;
#X obj 283 218 sel 1 2 3 4 5 6 7 8 9 10 11 12 13 14 15 16 17 18 19
20 21 22 23 24;
#X obj 30 63 bng 15 250 50 0 empty empty empty 17 7 0 10 -262144 -1
-1;
#X obj 30 83 s \$0-reset;
#X obj 40 36 loadbang;
#X obj 30 5 inlet RESET;
#X obj 37 667 r \$0-ctl-out;
#X obj 37 819 outlet;
#X obj 221 667 r \$0-bank;
#X obj 221 819 outlet;
#X obj 234 765 s;
#X msg 301 718 MIDIMIX-n-\$1;
#X obj 234 692 unpack f f;
#X obj 301 740 symbol;
#X obj 47 768 s;
#X obj 47 695 unpack f f;
#X obj 114 743 symbol;
#X msg 114 721 MIDIMIX-cc-\$1;
#X msg 208 581 \$2 \$1;
#X obj 208 625 noteout \$1;
#X obj 209 105 notein \$1;
#X obj 104 113 notein \$1;
#X obj 35 207 pack f f f f;
#X obj 35 186 sel \$1;
#X msg 35 228 \$2 \$3 \$4;
#X text 243 31 \$1 = MIDI Channel;
#X obj 283 399 flib.midi.mm \$0 1;
#X obj 300 379 flib.midi.mm \$0 2;
#X obj 317 359 flib.midi.mm \$0 3;
#X obj 335 339 flib.midi.mm \$0 4;
#X obj 352 319 flib.midi.mm \$0 5;
#X obj 369 299 flib.midi.mm \$0 6;
#X obj 387 279 flib.midi.mm \$0 7;
#X obj 404 259 flib.midi.mm \$0 8;
#X obj 422 399 flib.midi.mm \$0 9;
#X obj 439 379 flib.midi.mm \$0 10;
#X obj 456 359 flib.midi.mm \$0 11;
#X obj 474 339 flib.midi.mm \$0 12;
#X obj 491 319 flib.midi.mm \$0 13;
#X obj 508 299 flib.midi.mm \$0 14;
#X obj 526 279 flib.midi.mm \$0 15;
#X obj 543 259 flib.midi.mm \$0 16;
#X obj 561 399 flib.midi.mm \$0 17;
#X obj 578 379 flib.midi.mm \$0 18;
#X obj 595 359 flib.midi.mm \$0 19;
#X obj 613 339 flib.midi.mm \$0 20;
#X obj 630 319 flib.midi.mm \$0 21;
#X obj 647 299 flib.midi.mm \$0 22;
#X obj 665 279 flib.midi.mm \$0 23;
#X obj 682 259 flib.midi.mm \$0 24;
#X connect 1 0 40 1;
#X connect 1 1 40 2;
#X connect 1 2 41 0;
#X connect 3 0 40 3;
#X connect 4 0 5 0;
#X connect 5 0 6 0;
#X connect 5 1 9 0;
#X connect 5 2 17 0;
#X connect 6 0 7 0;
#X connect 7 0 8 0;
#X connect 9 0 13 0;
#X connect 11 0 36 0;
#X connect 12 0 37 0;
#X connect 12 1 37 1;
#X connect 13 0 10 0;
#X connect 14 0 15 0;
#X connect 14 1 16 0;
#X connect 15 0 3 0;
#X connect 16 0 3 0;
#X connect 17 0 18 0;
#X connect 18 0 19 0;
#X connect 19 0 44 0;
#X connect 19 1 45 0;
#X connect 19 2 46 0;
#X connect 19 3 47 0;
#X connect 19 4 48 0;
#X connect 19 5 49 0;
#X connect 19 6 50 0;
#X connect 19 7 51 0;
#X connect 19 8 52 0;
#X connect 19 9 53 0;
#X connect 19 10 54 0;
#X connect 19 11 55 0;
#X connect 19 12 56 0;
#X connect 19 13 57 0;
#X connect 19 14 58 0;
#X connect 19 15 59 0;
#X connect 19 16 60 0;
#X connect 19 17 61 0;
#X connect 19 18 62 0;
#X connect 19 19 63 0;
#X connect 19 20 64 0;
#X connect 19 21 65 0;
#X connect 19 22 66 0;
#X connect 19 23 67 0;
#X connect 20 0 21 0;
#X connect 22 0 20 0;
#X connect 23 0 20 0;
#X connect 24 0 25 0;
#X connect 24 0 33 0;
#X connect 26 0 27 0;
#X connect 26 0 30 0;
#X connect 29 0 31 0;
#X connect 30 0 28 0;
#X connect 30 1 29 0;
#X connect 31 0 28 1;
#X connect 33 0 32 0;
#X connect 33 1 35 0;
#X connect 34 0 32 1;
#X connect 35 0 34 0;
#X connect 36 0 12 0;
#X connect 38 0 4 0;
#X connect 38 1 4 1;
#X connect 39 0 14 0;
#X connect 40 0 42 0;
#X connect 41 0 40 0;
#X connect 42 0 2 0;
