#N canvas 2 58 450 300 10;
#X obj 44 134 sin;
#X obj 44 156 pow 2.7;
#X obj 44 112 * 3.14159;
#X obj 44 178 moses 0.001;
#X msg 44 200 0;
#X obj 44 250 outlet;
#X obj 44 28 inlet;
#X obj 44 90 clip 0 1;
#X text 129 66 sinusoidal bell curve transfer function;
#X connect 0 0 1 0;
#X connect 1 0 3 0;
#X connect 2 0 0 0;
#X connect 3 0 4 0;
#X connect 3 1 5 0;
#X connect 4 0 5 0;
#X connect 6 0 7 0;
#X connect 7 0 2 0;
