#N canvas 291 137 463 663 10;
#X obj 34 506 line 0 1;
#X obj 73 538 > 0;
#X obj 33 11 inlet;
#X obj 73 560 s \$0-spigot;
#X obj 98 393 r \$0-spigot;
#X obj 79 312 r \$0-spigot;
#X obj 34 332 spigot 1;
#X obj 53 436 spigot 0;
#X obj 34 618 outlet;
#X obj 98 415 == 0;
#X obj 34 290 t f f f;
#X obj 34 268 mavg 20;
#X obj 80 222 sel 0;
#X msg 80 244 20;
#X obj 80 203 \$3;
#X obj 80 182 loadbang;
#X text 131 16 smoother: smooth the incoming values;
#X obj 33 132 s \$0-float;
#X obj 34 160 r \$0-float;
#X obj 68 112 s \$0-up;
#X obj 103 93 s \$0-down;
#X obj 85 354 r \$0-up;
#X obj 104 458 r \$0-down;
#X obj 33 53 route float up down mavg;
#X obj 138 74 s \$0-mavg;
#X obj 121 247 r \$0-mavg;
#X obj 34 374 pack f \$1;
#X obj 53 478 pack f \$2;
#X text 209 55 \$1 = upwards smoothing time (ms) \; \$2 = downwards
smoothing time (ms) \; \$3 = moving average number of samples;
#X connect 0 0 1 1;
#X connect 0 0 8 0;
#X connect 1 0 3 0;
#X connect 2 0 23 0;
#X connect 4 0 9 0;
#X connect 5 0 6 1;
#X connect 6 0 26 0;
#X connect 7 0 27 0;
#X connect 9 0 7 1;
#X connect 10 0 6 0;
#X connect 10 1 7 0;
#X connect 10 2 1 0;
#X connect 11 0 10 0;
#X connect 12 0 13 0;
#X connect 12 1 11 1;
#X connect 13 0 11 1;
#X connect 14 0 12 0;
#X connect 15 0 14 0;
#X connect 18 0 11 0;
#X connect 21 0 26 1;
#X connect 22 0 27 1;
#X connect 23 0 17 0;
#X connect 23 1 19 0;
#X connect 23 2 20 0;
#X connect 23 3 24 0;
#X connect 25 0 11 1;
#X connect 26 0 0 0;
#X connect 27 0 0 0;
