#N canvas 255 93 742 299 10;
#X declare -stdlib zexy;
#X obj 269 104 time;
#X msg 137 194 label \$1;
#X obj 77 224 s \$0-stunde;
#X obj 307 224 s \$0-minute;
#X obj 102 57 cnv 13 22 15 empty \$0-stunde 22 2 8 0 11 -1 -228856
0;
#X obj 125 57 cnv 13 22 15 empty \$0-minute 01 2 8 0 11 -1 -228856
0;
#X obj 148 57 cnv 13 22 15 empty \$0-sek 34 2 8 0 11 -1 -228856 0;
#X obj 547 224 s \$0-sek;
#N canvas 0 50 448 415 license 0;
#X text 8 47 All rights reserved.;
#X text 8 227 The names of its contributors may not be used to endorse
or promote products derived from this software without specific prior
written permission.;
#X text 8 87 Redistribution and use in source and binary forms \, with
or without modification \, are permitted provided that the following
conditions are met:;
#X text 8 127 Redistributions of source code must retain the above
copyright notice \, this list of conditions and the following disclaimer.
;
#X text 8 297 THIS SOFTWARE IS PROVIDED BY THE COPYRIGHT HOLDERS AND
CONTRIBUTORS "AS IS" AND ANY EXPRESS OR IMPLIED WARRANTIES \, INCLUDING
\, BUT NOT LIMITED TO \, THE IMPLIED WARRANTIES OF MERCHANTABILITY
AND FITNESS FOR A PARTICULAR PURPOSE ARE DISCLAIMED. IN NO EVENT SHALL
THE COPYRIGHT OWNER OR CONTRIBUTORS BE LIABLE FOR ANY DIRECT \, INDIRECT
\, INCIDENTAL \, SPECIAL \, EXEMPLARY \, OR CONSEQUENTIAL DAMAGES (INCLUDING
\, BUT NOT LIMITED TO \, PROCUREMENT OF SUBSTITUTE GOODS OR SERVICES
;
#X text 8 167 Redistributions in binary form must reproduce the above
copyright notice \, this list of conditions and the following disclaimer
in the documentation and/or other materials provided with the distribution.
;
#X text 8 27 jmmmpais@gmail.com;
#X text 8 7 Copyright 2017 \, João Pais;
#X restore 15 284 pd license;
#X text 11 25 [uhr] - Shows the time;
#X obj 37 144 moses 10;
#X msg 17 195 label 0\$1;
#X msg 377 194 label \$1;
#X msg 257 194 label 0\$1;
#X msg 617 194 label \$1;
#X msg 497 194 label 0\$1;
#X obj 527 144 moses 10;
#X obj 277 144 moses 10;
#X obj 617 174 makefilename %d;
#X obj 497 174 makefilename %d;
#X obj 377 174 makefilename %d;
#X obj 257 174 makefilename %d;
#X obj 137 174 makefilename %d;
#X obj 17 174 makefilename %d;
#X obj 269 24 declare -stdlib zexy;
#X text 12 266 (C) 2006-2017 João Pais - jmmmpais@gmail.com;
#X obj 269 57 loadbang;
#X obj 269 84 metro 1000;
#X connect 0 0 10 0;
#X connect 0 1 17 0;
#X connect 0 2 16 0;
#X connect 1 0 2 0;
#X connect 10 0 23 0;
#X connect 10 1 22 0;
#X connect 11 0 2 0;
#X connect 12 0 3 0;
#X connect 13 0 3 0;
#X connect 14 0 7 0;
#X connect 15 0 7 0;
#X connect 16 0 19 0;
#X connect 16 1 18 0;
#X connect 17 0 21 0;
#X connect 17 1 20 0;
#X connect 18 0 14 0;
#X connect 19 0 15 0;
#X connect 20 0 12 0;
#X connect 21 0 13 0;
#X connect 22 0 1 0;
#X connect 23 0 11 0;
#X connect 26 0 27 0;
#X connect 27 0 0 0;
#X coords 0 -1 1 1 70 32 1 101 41;
