#N canvas 788 582 652 296 10;
#X obj 152 123 s \$0-sel;
#X obj 152 32 inlet waveform-select;
#X obj 15 253 outlet~;
#X obj 15 198 catch~ \$0-out;
#X obj 18 30 inlet~;
#X text 12 6 frequency;
#X obj 15 223 lop~ 15000;
#X text 116 227 <- crude band-limiting;
#X obj 333 25 inlet phase-reset;
#X obj 333 47 s \$0-phase;
#X obj 64 55 r \$0-phase;
#X text 230 104 change between sine \, triangle \, square \, sawtooth
\, impulse;
#X obj 152 101 clip 0 5;
#X obj 482 23 inlet random;
#X obj 482 89 s \$0-random;
#X obj 18 79 phasor~;
#N canvas 470 459 306 488 RANDOM________ 0;
#X obj 55 6 inlet~;
#X obj 55 455 outlet~;
#X obj 72 380 lop~ 100;
#X obj 72 221 * 0.01;
#X obj 72 358 *~;
#X obj 72 40 r \$0-random;
#X obj 89 315 r \$0-random;
#X obj 55 403 +~;
#X obj 55 425 wrap~;
#X obj 72 176 metro 100;
#X obj 72 263 pack f f;
#X obj 125 63 r \$0-rand-freq;
#X msg 125 105 1000 \$1;
#X obj 125 127 /;
#X obj 132 149 i;
#X obj 72 199 random 100;
#X obj 125 221 * 0.5;
#X obj 125 243 i;
#X obj 125 85 clip 0.01 5;
#X obj 89 337 sig~ 0;
#X obj 72 288 line~;
#X connect 0 0 7 0;
#X connect 2 0 7 1;
#X connect 3 0 10 0;
#X connect 4 0 2 0;
#X connect 5 0 9 0;
#X connect 6 0 19 0;
#X connect 7 0 8 0;
#X connect 8 0 1 0;
#X connect 9 0 15 0;
#X connect 10 0 20 0;
#X connect 11 0 18 0;
#X connect 12 0 13 0;
#X connect 13 0 14 0;
#X connect 13 0 16 0;
#X connect 14 0 9 1;
#X connect 15 0 3 0;
#X connect 16 0 17 0;
#X connect 17 0 10 1;
#X connect 18 0 12 0;
#X connect 19 0 4 1;
#X connect 20 0 4 0;
#X restore 18 112 pd RANDOM________;
#N canvas 2 131 310 227 WAVEFORMS_____ 0;
#N canvas 266 390 316 527 TRIANGLE____ 0;
#X obj 54 416 *~;
#X text 50 18 triangle;
#X obj 72 231 clip 0 2;
#X obj 72 255 moses 1;
#X msg 118 300 1 \$1;
#X obj 118 322 -;
#X obj 118 278 - 1;
#X obj 72 344 f;
#X obj 72 205 r \$0-sel;
#X obj 54 468 throw~ \$0-out;
#X msg 72 369 \$1 10;
#X obj 140 69 *~ -2;
#X obj 140 91 +~ 1;
#X obj 55 69 *~ 2;
#X obj 55 91 -~ 1;
#X obj 54 136 +~;
#X obj 55 113 clip~ 0 1;
#X obj 140 113 clip~ 0 1;
#X obj 54 158 *~ 2;
#X obj 54 180 -~ 1;
#X obj 54 36 inlet~;
#X obj 72 391 line~;
#X connect 0 0 9 0;
#X connect 2 0 3 0;
#X connect 3 0 7 0;
#X connect 3 1 6 0;
#X connect 4 0 5 0;
#X connect 5 0 7 0;
#X connect 6 0 4 0;
#X connect 7 0 10 0;
#X connect 8 0 2 0;
#X connect 10 0 21 0;
#X connect 11 0 12 0;
#X connect 12 0 17 0;
#X connect 13 0 14 0;
#X connect 14 0 16 0;
#X connect 15 0 18 0;
#X connect 16 0 15 0;
#X connect 17 0 15 1;
#X connect 18 0 19 0;
#X connect 19 0 0 0;
#X connect 20 0 13 0;
#X connect 20 0 11 0;
#X connect 21 0 0 1;
#X restore 81 84 pd TRIANGLE____;
#N canvas 2 168 314 401 SINE________ 0;
#X obj 39 277 *~;
#X text 61 50 sine;
#X obj 57 162 clip 0 1;
#X msg 57 184 1 \$1;
#X obj 57 206 -;
#X obj 57 136 r \$0-sel;
#X obj 39 329 throw~ \$0-out;
#X msg 57 229 \$1 10;
#X obj 40 101 cos~;
#X obj 41 75 inlet~;
#X obj 57 251 line~;
#X connect 0 0 6 0;
#X connect 2 0 3 0;
#X connect 3 0 4 0;
#X connect 4 0 7 0;
#X connect 5 0 2 0;
#X connect 7 0 10 0;
#X connect 8 0 0 0;
#X connect 9 0 8 0;
#X connect 10 0 0 1;
#X restore 81 61 pd SINE________;
#N canvas 2 178 327 581 SQUARE______ 0;
#X obj 52 457 *~;
#X text 52 25 square;
#X obj 70 294 moses 1;
#X msg 116 339 1 \$1;
#X obj 116 361 -;
#X obj 116 317 - 1;
#X obj 70 383 f;
#X obj 70 223 r \$0-sel;
#X obj 52 521 throw~ \$0-out;
#X msg 70 405 \$1 10;
#X obj 51 176 +~;
#X obj 68 110 +~ 0.5;
#X obj 68 132 wrap~;
#X obj 68 154 -~ 1;
#X obj 68 88 *~ -1;
#X obj 51 198 *~ 2;
#X obj 52 479 *~ 1;
#X obj 70 249 clip 1 3;
#X obj 70 271 - 1;
#X obj 51 53 inlet~;
#X obj 70 430 line~;
#X connect 0 0 16 0;
#X connect 2 0 6 0;
#X connect 2 1 5 0;
#X connect 3 0 4 0;
#X connect 4 0 6 0;
#X connect 5 0 3 0;
#X connect 6 0 9 0;
#X connect 7 0 17 0;
#X connect 9 0 20 0;
#X connect 10 0 15 0;
#X connect 11 0 12 0;
#X connect 12 0 13 0;
#X connect 13 0 10 1;
#X connect 14 0 11 0;
#X connect 15 0 0 0;
#X connect 16 0 8 0;
#X connect 17 0 18 0;
#X connect 18 0 2 0;
#X connect 19 0 14 0;
#X connect 19 0 10 0;
#X connect 20 0 0 1;
#X restore 82 108 pd SQUARE______;
#N canvas 2 193 302 438 SAWTOOTH____ 0;
#X obj 46 352 *~;
#X text 48 17 sawtooth;
#X obj 64 188 moses 1;
#X msg 110 233 1 \$1;
#X obj 110 255 -;
#X obj 110 211 - 1;
#X obj 64 277 f;
#X obj 64 117 r \$0-sel;
#X obj 46 404 throw~ \$0-out;
#X msg 64 299 \$1 10;
#X obj 46 63 *~ 2;
#X obj 46 85 -~ 1;
#X obj 64 143 clip 2 4;
#X obj 64 165 - 2;
#X obj 46 42 inlet~;
#X obj 64 324 line~;
#X connect 0 0 8 0;
#X connect 2 0 6 0;
#X connect 2 1 5 0;
#X connect 3 0 4 0;
#X connect 4 0 6 0;
#X connect 5 0 3 0;
#X connect 6 0 9 0;
#X connect 7 0 12 0;
#X connect 9 0 15 0;
#X connect 10 0 11 0;
#X connect 11 0 0 0;
#X connect 12 0 13 0;
#X connect 13 0 2 0;
#X connect 14 0 10 0;
#X connect 15 0 0 1;
#X restore 82 130 pd SAWTOOTH____;
#N canvas 232 532 420 526 IMPULSE_____ 0;
#X obj 46 432 *~;
#X text 48 17 sawtooth;
#X obj 64 268 moses 1;
#X msg 110 313 1 \$1;
#X obj 110 335 -;
#X obj 110 291 - 1;
#X obj 64 357 f;
#X obj 64 197 r \$0-sel;
#X obj 46 484 throw~ \$0-out;
#X msg 64 379 \$1 10;
#X obj 64 223 clip 3 5;
#X obj 64 245 - 3;
#X obj 46 42 inlet~;
#X obj 46 74 -~ 0.99;
#X obj 46 96 clip~ 0 1;
#X obj 46 118 *~ 100;
#X obj 64 404 line~;
#X connect 0 0 8 0;
#X connect 2 0 6 0;
#X connect 2 1 5 0;
#X connect 3 0 4 0;
#X connect 4 0 6 0;
#X connect 5 0 3 0;
#X connect 6 0 9 0;
#X connect 7 0 10 0;
#X connect 9 0 16 0;
#X connect 10 0 11 0;
#X connect 11 0 2 0;
#X connect 12 0 13 0;
#X connect 13 0 14 0;
#X connect 14 0 15 0;
#X connect 15 0 0 0;
#X connect 16 0 0 1;
#X restore 82 152 pd IMPULSE_____;
#X obj 23 18 inlet~;
#X connect 5 0 4 0;
#X connect 5 0 3 0;
#X connect 5 0 2 0;
#X connect 5 0 0 0;
#X connect 5 0 1 0;
#X restore 18 141 pd WAVEFORMS_____;
#X obj 536 67 s \$0-rand-freq;
#X obj 482 45 route float rand-freq;
#X obj 168 59 loadbang;
#X msg 168 80 0;
#X connect 1 0 12 0;
#X connect 3 0 6 0;
#X connect 4 0 15 0;
#X connect 6 0 2 0;
#X connect 8 0 9 0;
#X connect 10 0 15 1;
#X connect 12 0 0 0;
#X connect 13 0 19 0;
#X connect 15 0 16 0;
#X connect 16 0 17 0;
#X connect 19 0 14 0;
#X connect 19 1 18 0;
#X connect 20 0 21 0;
#X connect 21 0 12 0;
