#N canvas 668 208 437 278 10;
#N canvas 182 213 1590 527 audioOuts 0;
#X obj 107 120 tgl 15 0 empty empty 1 0 7 0 10 -262144 -1 -1 0 1;
#X obj 34 273 sig~;
#X obj 34 295 lop~ 200;
#X obj 20 317 *~;
#X obj 20 248 r~ \$0-from-osc;
#X obj 126 120 tgl 15 0 empty empty 2 2 7 0 10 -262144 -1 -1 0 1;
#X obj 130 267 sig~;
#X obj 130 289 lop~ 200;
#X obj 116 311 *~;
#X obj 116 242 r~ \$0-from-osc;
#X obj 144 120 tgl 15 0 empty empty 3 2 7 0 10 -262144 -1 -1 0 1;
#X obj 228 265 sig~;
#X obj 228 287 lop~ 200;
#X obj 214 309 *~;
#X obj 214 240 r~ \$0-from-osc;
#X obj 162 120 tgl 15 0 empty empty 4 2 7 0 10 -262144 -1 -1 0 1;
#X obj 324 259 sig~;
#X obj 324 281 lop~ 200;
#X obj 310 303 *~;
#X obj 310 234 r~ \$0-from-osc;
#X obj 180 120 tgl 15 0 empty empty 5 2 7 0 10 -262144 -1 -1 0 1;
#X obj 419 259 sig~;
#X obj 419 281 lop~ 200;
#X obj 405 303 *~;
#X obj 405 234 r~ \$0-from-osc;
#X obj 199 120 tgl 15 0 empty empty 6 2 7 0 10 -262144 -1 -1 0 1;
#X obj 515 253 sig~;
#X obj 515 275 lop~ 200;
#X obj 501 297 *~;
#X obj 501 228 r~ \$0-from-osc;
#X obj 83 424 dac~ 1 2 3 4 5 6 7 8 9 10 11 12 13 14 15 16;
#X obj 217 120 tgl 15 0 empty empty 7 2 7 0 10 -262144 -1 -1 0 1;
#X obj 628 252 sig~;
#X obj 628 274 lop~ 200;
#X obj 614 296 *~;
#X obj 614 227 r~ \$0-from-osc;
#X obj 236 120 tgl 15 0 empty empty 8 2 7 0 10 -262144 -1 -1 0 1;
#X obj 724 246 sig~;
#X obj 724 268 lop~ 200;
#X obj 710 290 *~;
#X obj 710 221 r~ \$0-from-osc;
#X obj 254 120 tgl 15 0 empty empty 9 2 7 0 10 -262144 -1 -1 0 1;
#X obj 822 244 sig~;
#X obj 822 266 lop~ 200;
#X obj 808 288 *~;
#X obj 808 219 r~ \$0-from-osc;
#X obj 273 120 tgl 15 0 empty empty 10 0 7 0 10 -262144 -1 -1 0 1;
#X obj 918 238 sig~;
#X obj 918 260 lop~ 200;
#X obj 904 282 *~;
#X obj 904 213 r~ \$0-from-osc;
#X obj 292 120 tgl 15 0 empty empty 11 1 7 0 10 -262144 -1 -1 0 1;
#X obj 1013 238 sig~;
#X obj 1013 260 lop~ 200;
#X obj 999 282 *~;
#X obj 999 213 r~ \$0-from-osc;
#X obj 311 120 tgl 15 0 empty empty 12 0 7 0 10 -262144 -1 -1 0 1;
#X obj 1109 232 sig~;
#X obj 1109 254 lop~ 200;
#X obj 1095 276 *~;
#X obj 1055 207 r~ \$0-from-osc;
#X obj 330 120 tgl 15 0 empty empty 13 1 7 0 10 -262144 -1 -1 0 1;
#X obj 1211 229 sig~;
#X obj 1211 251 lop~ 200;
#X obj 1197 273 *~;
#X obj 1157 204 r~ \$0-from-osc;
#X obj 349 120 tgl 15 0 empty empty 14 1 7 0 10 -262144 -1 -1 0 1;
#X obj 1307 223 sig~;
#X obj 1307 245 lop~ 200;
#X obj 1293 267 *~;
#X obj 1253 198 r~ \$0-from-osc;
#X obj 368 120 tgl 15 0 empty empty 15 1 7 0 10 -262144 -1 -1 0 1;
#X obj 1402 223 sig~;
#X obj 1402 245 lop~ 200;
#X obj 1388 267 *~;
#X obj 1348 198 r~ \$0-from-osc;
#X obj 386 120 tgl 15 0 empty empty 16 1 7 0 10 -262144 -1 -1 0 1;
#X obj 1498 217 sig~;
#X obj 1498 239 lop~ 200;
#X obj 1484 261 *~;
#X obj 1444 192 r~ \$0-from-osc;
#X connect 0 0 1 0;
#X connect 1 0 2 0;
#X connect 2 0 3 1;
#X connect 3 0 30 0;
#X connect 4 0 3 0;
#X connect 5 0 6 0;
#X connect 6 0 7 0;
#X connect 7 0 8 1;
#X connect 8 0 30 1;
#X connect 9 0 8 0;
#X connect 10 0 11 0;
#X connect 11 0 12 0;
#X connect 12 0 13 1;
#X connect 13 0 30 2;
#X connect 14 0 13 0;
#X connect 15 0 16 0;
#X connect 16 0 17 0;
#X connect 17 0 18 1;
#X connect 18 0 30 3;
#X connect 19 0 18 0;
#X connect 20 0 21 0;
#X connect 21 0 22 0;
#X connect 22 0 23 1;
#X connect 23 0 30 4;
#X connect 24 0 23 0;
#X connect 25 0 26 0;
#X connect 26 0 27 0;
#X connect 27 0 28 1;
#X connect 28 0 30 5;
#X connect 29 0 28 0;
#X connect 31 0 32 0;
#X connect 32 0 33 0;
#X connect 33 0 34 1;
#X connect 34 0 30 6;
#X connect 35 0 34 0;
#X connect 36 0 37 0;
#X connect 37 0 38 0;
#X connect 38 0 39 1;
#X connect 39 0 30 7;
#X connect 40 0 39 0;
#X connect 41 0 42 0;
#X connect 42 0 43 0;
#X connect 43 0 44 1;
#X connect 44 0 30 8;
#X connect 45 0 44 0;
#X connect 46 0 47 0;
#X connect 47 0 48 0;
#X connect 48 0 49 1;
#X connect 49 0 30 9;
#X connect 50 0 49 0;
#X connect 51 0 52 0;
#X connect 52 0 53 0;
#X connect 53 0 54 1;
#X connect 54 0 30 10;
#X connect 55 0 54 0;
#X connect 56 0 57 0;
#X connect 57 0 58 0;
#X connect 58 0 59 1;
#X connect 59 0 30 11;
#X connect 60 0 59 0;
#X connect 61 0 62 0;
#X connect 62 0 63 0;
#X connect 63 0 64 1;
#X connect 64 0 30 12;
#X connect 65 0 64 0;
#X connect 66 0 67 0;
#X connect 67 0 68 0;
#X connect 68 0 69 1;
#X connect 69 0 30 13;
#X connect 70 0 69 0;
#X connect 71 0 72 0;
#X connect 72 0 73 0;
#X connect 73 0 74 1;
#X connect 74 0 30 14;
#X connect 75 0 74 0;
#X connect 76 0 77 0;
#X connect 77 0 78 0;
#X connect 78 0 79 1;
#X connect 79 0 30 15;
#X connect 80 0 79 0;
#X coords 0 -1 1 1 310 40 1 100 100;
#X restore 40 196 pd audioOuts;
#N canvas 195 500 1590 527 audioIns 0;
#X obj 102 120 tgl 15 0 empty empty 1 0 7 0 10 -262144 -1 -1 0 1;
#X obj -6 273 sig~;
#X obj -6 295 lop~ 200;
#X obj -20 317 *~;
#X obj 123 120 tgl 15 0 empty empty 2 2 7 0 10 -262144 -1 -1 0 1;
#X obj 90 267 sig~;
#X obj 90 289 lop~ 200;
#X obj 76 311 *~;
#X obj 142 120 tgl 15 0 empty empty 3 2 7 0 10 -262144 -1 -1 0 1;
#X obj 188 265 sig~;
#X obj 188 287 lop~ 200;
#X obj 174 309 *~;
#X obj 164 120 tgl 15 0 empty empty 4 2 7 0 10 -262144 -1 -1 0 1;
#X obj 284 259 sig~;
#X obj 284 281 lop~ 200;
#X obj 270 303 *~;
#X obj 186 120 tgl 15 0 empty empty 5 2 7 0 10 -262144 -1 -1 0 1;
#X obj 379 259 sig~;
#X obj 379 281 lop~ 200;
#X obj 365 303 *~;
#X obj 210 120 tgl 15 0 empty empty 6 2 7 0 10 -262144 -1 -1 0 1;
#X obj 475 253 sig~;
#X obj 475 275 lop~ 200;
#X obj 461 297 *~;
#X obj 234 120 tgl 15 0 empty empty 7 2 7 0 10 -262144 -1 -1 0 1;
#X obj 588 252 sig~;
#X obj 588 274 lop~ 200;
#X obj 574 296 *~;
#X obj 259 120 tgl 15 0 empty empty 8 2 7 0 10 -262144 -1 -1 0 1;
#X obj 684 246 sig~;
#X obj 684 268 lop~ 200;
#X obj 670 290 *~;
#X obj 283 120 tgl 15 0 empty empty 9 2 7 0 10 -262144 -1 -1 0 1;
#X obj 782 244 sig~;
#X obj 782 266 lop~ 200;
#X obj 768 288 *~;
#X obj 306 120 tgl 15 0 empty empty 10 0 7 0 10 -262144 -1 -1 0 1;
#X obj 878 238 sig~;
#X obj 878 260 lop~ 200;
#X obj 864 282 *~;
#X obj 331 120 tgl 15 0 empty empty 11 1 7 0 10 -262144 -1 -1 0 1;
#X obj 973 238 sig~;
#X obj 973 260 lop~ 200;
#X obj 959 282 *~;
#X obj 354 120 tgl 15 0 empty empty 12 0 7 0 10 -262144 -1 -1 0 1;
#X obj 1069 232 sig~;
#X obj 1069 254 lop~ 200;
#X obj 1055 276 *~;
#X obj 378 120 tgl 15 0 empty empty 13 1 7 0 10 -262144 -1 -1 0 1;
#X obj 1171 229 sig~;
#X obj 1171 251 lop~ 200;
#X obj 1157 273 *~;
#X obj 402 120 tgl 15 0 empty empty 14 1 7 0 10 -262144 -1 -1 0 1;
#X obj 1267 223 sig~;
#X obj 1267 245 lop~ 200;
#X obj 1253 267 *~;
#X obj 425 120 tgl 15 0 empty empty 15 1 7 0 10 -262144 -1 -1 0 1;
#X obj 1362 223 sig~;
#X obj 1362 245 lop~ 200;
#X obj 1348 267 *~;
#X obj 448 120 tgl 15 0 empty empty 16 1 7 0 10 -262144 -1 -1 0 1;
#X obj 1458 217 sig~;
#X obj 1458 239 lop~ 200;
#X obj 1444 261 *~;
#X obj -20 248 adc~ 1;
#X obj 76 242 adc~ 2;
#X obj 174 240 adc~ 3;
#X obj 270 234 adc~ 4;
#X obj 365 234 adc~ 5;
#X obj 461 228 adc~ 6;
#X obj 574 227 adc~ 7;
#X obj 664 221 adc~ 8;
#X obj 768 219 adc~ 9;
#X obj 864 213 adc~ 10;
#X obj 959 213 adc~ 11;
#X obj 1055 207 adc~ 12;
#X obj 1157 204 adc~ 13;
#X obj 1253 198 adc~ 14;
#X obj 1348 198 adc~ 15;
#X obj 1444 192 adc~ 16;
#X floatatom 102 141 3 0 0 0 - - -;
#X obj -19 369 env~ 8192 4096;
#X floatatom 123 141 3 0 0 0 - - -;
#X obj 77 367 env~ 8192 4096;
#X floatatom 142 141 3 0 0 0 - - -;
#X obj 175 361 env~ 8192 4096;
#X floatatom 164 141 3 0 0 0 - - -;
#X obj 271 359 env~ 8192 4096;
#X floatatom 186 141 3 0 0 0 - - -;
#X obj 364 357 env~ 8192 4096;
#X floatatom 210 141 3 0 0 0 - - -;
#X obj 460 355 env~ 8192 4096;
#X floatatom 234 141 3 0 0 0 - - -;
#X obj 558 349 env~ 8192 4096;
#X floatatom 259 141 3 0 0 0 - - -;
#X obj 654 347 env~ 8192 4096;
#X floatatom 283 141 3 0 0 0 - - -;
#X obj 760 346 env~ 8192 4096;
#X floatatom 306 141 3 0 0 0 - - -;
#X obj 856 344 env~ 8192 4096;
#X floatatom 331 141 3 0 0 0 - - -;
#X obj 954 338 env~ 8192 4096;
#X floatatom 354 141 3 0 0 0 - - -;
#X obj 1050 336 env~ 8192 4096;
#X floatatom 378 141 3 0 0 0 - - -;
#X obj 1143 334 env~ 8192 4096;
#X floatatom 402 141 3 0 0 0 - - -;
#X obj 1239 332 env~ 8192 4096;
#X floatatom 425 141 3 0 0 0 - - -;
#X obj 1337 326 env~ 8192 4096;
#X floatatom 448 141 3 0 0 0 - - -;
#X obj 1433 324 env~ 8192 4096;
#X connect 0 0 1 0;
#X connect 1 0 2 0;
#X connect 2 0 3 1;
#X connect 3 0 81 0;
#X connect 4 0 5 0;
#X connect 5 0 6 0;
#X connect 6 0 7 1;
#X connect 7 0 83 0;
#X connect 8 0 9 0;
#X connect 9 0 10 0;
#X connect 10 0 11 1;
#X connect 11 0 85 0;
#X connect 12 0 13 0;
#X connect 13 0 14 0;
#X connect 14 0 15 1;
#X connect 15 0 87 0;
#X connect 16 0 17 0;
#X connect 17 0 18 0;
#X connect 18 0 19 1;
#X connect 19 0 89 0;
#X connect 20 0 21 0;
#X connect 21 0 22 0;
#X connect 22 0 23 1;
#X connect 23 0 91 0;
#X connect 24 0 25 0;
#X connect 25 0 26 0;
#X connect 26 0 27 1;
#X connect 27 0 93 0;
#X connect 28 0 29 0;
#X connect 29 0 30 0;
#X connect 30 0 31 1;
#X connect 31 0 95 0;
#X connect 32 0 33 0;
#X connect 33 0 34 0;
#X connect 34 0 35 1;
#X connect 35 0 97 0;
#X connect 36 0 37 0;
#X connect 37 0 38 0;
#X connect 38 0 39 1;
#X connect 39 0 99 0;
#X connect 40 0 41 0;
#X connect 41 0 42 0;
#X connect 42 0 43 1;
#X connect 43 0 101 0;
#X connect 44 0 45 0;
#X connect 45 0 46 0;
#X connect 46 0 47 1;
#X connect 47 0 103 0;
#X connect 48 0 49 0;
#X connect 49 0 50 0;
#X connect 50 0 51 1;
#X connect 51 0 105 0;
#X connect 52 0 53 0;
#X connect 53 0 54 0;
#X connect 54 0 55 1;
#X connect 55 0 107 0;
#X connect 56 0 57 0;
#X connect 57 0 58 0;
#X connect 58 0 59 1;
#X connect 59 0 109 0;
#X connect 60 0 61 0;
#X connect 61 0 62 0;
#X connect 62 0 63 1;
#X connect 63 0 111 0;
#X connect 64 0 3 0;
#X connect 65 0 7 0;
#X connect 66 0 11 0;
#X connect 67 0 15 0;
#X connect 68 0 19 0;
#X connect 69 0 23 0;
#X connect 70 0 27 0;
#X connect 71 0 31 0;
#X connect 72 0 35 0;
#X connect 73 0 39 0;
#X connect 74 0 43 0;
#X connect 75 0 47 0;
#X connect 76 0 51 0;
#X connect 77 0 55 0;
#X connect 78 0 59 0;
#X connect 79 0 63 0;
#X connect 81 0 80 0;
#X connect 83 0 82 0;
#X connect 85 0 84 0;
#X connect 87 0 86 0;
#X connect 89 0 88 0;
#X connect 91 0 90 0;
#X connect 93 0 92 0;
#X connect 95 0 94 0;
#X connect 97 0 96 0;
#X connect 99 0 98 0;
#X connect 101 0 100 0;
#X connect 103 0 102 0;
#X connect 105 0 104 0;
#X connect 107 0 106 0;
#X connect 109 0 108 0;
#X connect 111 0 110 0;
#X coords 0 -1 1 1 370 60 1 100 100;
#X restore 40 133 pd audioIns;
#N canvas 387 503 397 498 soundSource 0;
#X obj 147 279 osc~ 440;
#X obj 147 301 *~;
#X obj 148 448 s~ \$0-from-osc;
#X obj 212 248 sig~;
#X obj 108 172 hsl 100 25 0 1 0 0 empty empty AMPLITUDE 10 10 0 10
-1 -191407 -4034 0 1;
#X obj 105 114 hradio 35 1 0 2 empty empty SINE__NOISE 2 15 0 10 -33289
-128992 -4034 0;
#X obj 147 326 *~;
#X obj 98 272 == 0;
#X obj 184 365 *~;
#X obj 183 390 *~;
#X obj 33 63 loadbang;
#X msg 33 85 0;
#X obj 212 270 lop~ 10;
#X floatatom 106 153 5 1 22050 1 sine_frequency - -;
#X msg 61 85 440;
#X obj 184 343 flib.audio.pink~;
#X connect 0 0 1 0;
#X connect 1 0 6 0;
#X connect 3 0 12 0;
#X connect 4 0 3 0;
#X connect 5 0 7 0;
#X connect 5 0 9 1;
#X connect 6 0 2 0;
#X connect 7 0 6 1;
#X connect 8 0 9 0;
#X connect 9 0 2 0;
#X connect 10 0 11 0;
#X connect 10 0 14 0;
#X connect 11 0 5 0;
#X connect 12 0 1 1;
#X connect 12 0 8 1;
#X connect 13 0 0 0;
#X connect 14 0 13 0;
#X connect 15 0 8 0;
#X coords 0 -1 1 1 130 100 1 100 100;
#X restore 40 30 pd soundSource;
