#N canvas 136 74 335 312 10;
#X obj 47 178 z~ 64;
#X obj 64 132 limiter~;
#X obj 47 200 *~;
#X obj 65 153 lop~ 100;
#X obj 46 18 inlet~;
#X obj 47 262 outlet~;
#X obj 94 40 loadbang;
#X obj 94 62 t b b;
#X msg 126 85 LIMIT;
#X msg 94 108 set 84 10 100;
#X connect 0 0 2 0;
#X connect 1 0 3 0;
#X connect 2 0 5 0;
#X connect 3 0 2 1;
#X connect 4 0 0 0;
#X connect 4 0 1 0;
#X connect 6 0 7 0;
#X connect 7 0 9 0;
#X connect 7 1 8 0;
#X connect 8 0 1 0;
#X connect 9 0 1 0;
