#N canvas 0 22 450 300 10;
#X text 27 150 signal-out;
#X obj 29 129 outlet~;
#X obj 29 49 noise~;
#X obj 29 88 biquad~ 1.83221 -0.836851 0.271264 -0.456311 0.18969;
#X obj 29 108 biquad~ 0.273097 0.087865 0.505803 0.171365 -0.03813
;
#X obj 29 68 biquad~ 1.98893 -0.988954 1.00554 -1.9889 0.983444;
#X text 227 195 IEM KUG;
#X text 211 183 musil;
#X text 241 183 @;
#X text 247 183 iem.at;
#X text 162 172 (c) Thomas Musil 2000 - 2005;
#X text 210 205 Graz \, Austria;
#X text 124 8 pink~ /// pink noise generator;
#X connect 2 0 5 0;
#X connect 3 0 4 0;
#X connect 4 0 1 0;
#X connect 5 0 3 0;
