#N canvas 0 151 501 241 10;
#X text 141 16 peakenv~ /// peak envelope follower;
#X obj 35 92 *~;
#X obj 35 48 noise~;
#X obj 50 70 osc~ 0.4;
#X floatatom 164 95 5 0 0 1 DECAY_TIME_(ms) - -;
#X obj 35 160 env~;
#X obj 35 181 dbtorms;
#X floatatom 35 202 5 0 0 0 - - -;
#X text 297 86 INLETS \; 1st = audio signal to analyse \; 2nd = envelope
decay time (ms);
#X obj 35 123 flib.audio.peakenv~ 10;
#X text 297 149 ARGUMENTS \; \$1 = envelope decay time (ms);
#X connect 1 0 9 0;
#X connect 2 0 1 0;
#X connect 3 0 1 1;
#X connect 4 0 9 1;
#X connect 5 0 6 0;
#X connect 6 0 7 0;
#X connect 9 0 5 0;
