#N canvas 56 423 328 341 10;
#X obj 47 28 inlet;
#X obj 47 120 i;
#X obj 77 121 + 1;
#X obj 47 142 mod 2;
#X msg 59 97 0;
#X obj 47 167 sel 1;
#X msg 47 189 127;
#X obj 59 75 r \$1-reset;
#X text 135 23 \$1 = reset \; \$2 = instance;
#X obj 47 211 pack f \$2;
#X obj 47 238 s \$1-bank;
#X connect 0 0 1 0;
#X connect 1 0 2 0;
#X connect 1 0 3 0;
#X connect 2 0 1 1;
#X connect 3 0 5 0;
#X connect 4 0 1 0;
#X connect 5 0 6 0;
#X connect 5 1 9 0;
#X connect 6 0 9 0;
#X connect 7 0 4 0;
#X connect 9 0 10 0;
