#N canvas 89 71 554 696 12;
#X obj 74 48 inlet;
#X obj 177 108 \$1;
#X obj 74 304 i;
#X obj 104 304 + 1;
#X msg 97 228 0;
#X obj 177 132 sel 0;
#X msg 177 156 1;
#X obj 104 353 sel 0;
#X obj 320 44 inlet delaytime;
#X obj 177 44 inlet no_of_drips;
#X obj 320 88 max 0;
#X obj 74 199 t b b b;
#X msg 133 227 stop;
#X obj 79 615 outlet;
#X obj 203 619 outlet;
#X obj 186 84 loadbang;
#X obj 136 379 t b;
#X obj 136 432 del \$2;
#X obj 74 510 s \$0-counter-value;
#X obj 203 581 r \$0-counter-value;
#X obj 104 486 s \$0-bang-out;
#X obj 79 583 r \$0-bang-out;
#X obj 136 456 s \$0-del-bang-out;
#X obj 102 273 r \$0-del-bang-out;
#X obj 177 180 s \$0-no-of-drips;
#X obj 136 305 r s \$0-no-of-drips;
#X obj 104 329 mod 1;
#X obj 320 112 s \$0-delay-time;
#X obj 175 404 r \$0-delay-time;
#X obj 133 251 s \$0-del-clear;
#X obj 169 380 r \$0-del-clear;
#X connect 0 0 11 0;
#X connect 1 0 5 0;
#X connect 2 0 3 0;
#X connect 2 0 18 0;
#X connect 3 0 2 1;
#X connect 3 0 26 0;
#X connect 4 0 2 1;
#X connect 5 0 6 0;
#X connect 5 1 24 0;
#X connect 6 0 24 0;
#X connect 7 0 20 0;
#X connect 7 1 16 0;
#X connect 8 0 10 0;
#X connect 9 0 1 0;
#X connect 10 0 27 0;
#X connect 11 0 2 0;
#X connect 11 1 4 0;
#X connect 11 2 12 0;
#X connect 12 0 29 0;
#X connect 15 0 1 0;
#X connect 16 0 17 0;
#X connect 17 0 20 0;
#X connect 17 0 22 0;
#X connect 19 0 14 0;
#X connect 21 0 13 0;
#X connect 23 0 2 0;
#X connect 25 0 26 1;
#X connect 26 0 7 0;
#X connect 28 0 17 1;
#X connect 30 0 17 0;
