#N canvas 1 68 389 303 10;
#X obj 110 18 inlet;
#X obj 37 20 inlet;
#X obj 37 82 t f b;
#X obj 123 83 t b f;
#X obj 123 116 f;
#X obj 69 116 f;
#X obj 37 254 outlet;
#X obj 37 179 pack f f;
#X text 213 55 packs values for xy pad;
#X text 112 179 <- 1)x. 2)y.;
#X obj 166 18 inlet;
#X obj 166 40 t b b;
#X connect 0 0 4 1;
#X connect 0 0 2 0;
#X connect 1 0 3 0;
#X connect 1 0 5 1;
#X connect 2 0 7 0;
#X connect 2 1 5 0;
#X connect 3 0 4 0;
#X connect 3 1 7 1;
#X connect 4 0 7 0;
#X connect 5 0 7 1;
#X connect 7 0 6 0;
#X connect 10 0 11 0;
#X connect 11 0 5 0;
#X connect 11 1 4 0;
